<?xml version="1.0" standalone="no"?>
<!DOCTYPE svg PUBLIC "-//W3C//DTD SVG 20010904//EN"
 "http://www.w3.org/TR/2001/REC-SVG-20010904/DTD/svg10.dtd">
<svg version="1.0" xmlns="http://www.w3.org/2000/svg"
 width="289.000000pt" height="248.000000pt" viewBox="0 0 289.000000 248.000000"
 preserveAspectRatio="xMidYMid meet">

<g transform="translate(0.000000,248.000000) scale(0.100000,-0.100000)"
fill="#000000" stroke="none">
<path d="M1906 2102 c-9 -18 -26 -32 -43 -36 -77 -19 -183 -126 -183 -184 0
-42 28 -21 49 36 13 38 29 62 43 69 13 6 39 17 58 26 19 9 47 24 62 34 25 16
28 16 45 1 13 -12 23 -14 36 -7 18 11 32 1 118 -84 50 -48 66 -103 51 -174
-13 -61 -55 -123 -85 -123 -27 0 -244 38 -286 50 -40 11 -60 35 -61 73 0 21
-4 28 -17 25 -9 -2 -20 -12 -23 -23 -3 -14 -15 -21 -40 -23 -69 -7 -146 -6
-220 2 -72 8 -156 -4 -422 -60 -27 -5 -27 -5 -30 53 l-3 58 -187 3 -187 2 -3
-92 -3 -92 -120 -21 -120 -20 -3 -38 c-5 -59 8 -67 104 -67 l84 0 0 -243 c0
-234 -1 -245 -21 -268 -58 -66 -69 -192 -25 -277 37 -72 111 -106 216 -100 78
4 130 33 155 85 23 48 19 57 -35 75 l-50 16 -16 -33 c-26 -55 -90 -68 -135
-28 -37 31 -31 189 7 218 23 18 83 19 105 2 8 -7 18 -20 22 -30 4 -12 13 -16
24 -13 10 3 35 8 56 12 42 7 44 13 20 52 -42 65 -86 86 -180 86 l-73 0 0 243
0 243 -89 0 c-85 0 -116 10 -95 30 5 5 55 15 112 23 57 9 110 21 118 28 10 8
14 34 14 90 l0 79 120 0 120 0 0 -65 c0 -49 4 -67 15 -71 8 -3 115 15 239 40
210 44 228 46 292 36 120 -18 117 -17 110 -54 -5 -26 -2 -37 19 -56 21 -20 30
-22 52 -14 14 5 33 24 42 41 20 41 25 41 232 3 90 -17 216 -40 279 -51 151
-27 160 -33 65 -39 l-80 -5 -3 -252 -2 -252 -55 6 c-69 7 -136 -11 -175 -48
-25 -24 -30 -37 -30 -75 0 -65 42 -105 137 -129 93 -25 103 -31 103 -63 0 -38
-17 -52 -60 -52 -37 0 -61 17 -73 53 -5 13 -18 17 -61 17 -30 0 -58 -4 -61
-10 -3 -5 3 -30 14 -55 27 -60 77 -84 176 -85 122 0 195 57 195 152 0 63 -38
95 -149 127 -52 15 -99 34 -105 43 -16 25 10 48 54 48 29 0 41 -6 54 -25 14
-21 24 -25 70 -25 29 0 55 3 59 6 3 4 -2 23 -11 43 -15 32 -16 65 -12 291 l5
255 80 5 80 5 3 32 c4 36 11 33 -143 63 -146 28 -138 24 -117 60 13 23 22 29
37 25 49 -16 66 -17 80 -5 8 7 12 17 9 22 -3 5 0 9 7 7 8 -1 20 -1 27 0 18 1
43 67 36 95 -8 32 -104 76 -104 47 0 -5 -9 -11 -20 -14 -17 -4 -26 5 -50 57
-16 34 -41 73 -55 86 -17 16 -25 34 -25 57 0 21 -6 36 -15 40 -24 8 -32 -7
-12 -21 18 -14 23 -36 8 -36 -5 0 -28 7 -51 15 -23 8 -53 15 -66 15 -32 0 -31
28 1 32 32 4 37 22 8 26 -16 2 -26 -5 -37 -26z m-306 -406 c0 -3 -4 -8 -10
-11 -5 -3 -10 -1 -10 4 0 6 5 11 10 11 6 0 10 -2 10 -4z"/>
<path d="M1871 2001 c-17 -11 -7 -41 14 -41 16 0 17 5 7 32 -5 12 -11 14 -21
9z"/>
<path d="M1926 1953 c-4 -9 -2 -21 3 -26 15 -15 46 -3 49 21 3 18 -1 22 -21
22 -14 0 -28 -7 -31 -17z"/>
<path d="M1800 1925 c0 -5 5 -17 10 -25 5 -8 10 -10 10 -5 0 6 -5 17 -10 25
-5 8 -10 11 -10 5z"/>
<path d="M1830 1847 c0 -53 52 -90 63 -46 5 18 11 20 33 15 18 -5 30 -3 35 6
15 23 10 28 -31 28 -23 0 -54 7 -70 15 l-30 16 0 -34z"/>
<path d="M1176 1504 c-6 -16 9 -44 25 -44 16 0 38 31 33 45 -8 20 -50 19 -58
-1z"/>
<path d="M1814 1496 c-11 -29 0 -51 26 -51 21 0 25 5 25 30 0 24 -5 31 -23 33
-13 2 -24 -3 -28 -12z"/>
<path d="M1480 1475 c-10 -12 -10 -18 0 -30 7 -8 18 -15 25 -15 19 0 36 25 29
44 -8 20 -38 21 -54 1z"/>
<path d="M824 1436 c-8 -21 3 -36 27 -36 15 0 20 6 17 22 -4 27 -35 37 -44 14z"/>
<path d="M1154 1413 c-10 -15 -13 -16 -28 -4 -14 11 -16 11 -16 -1 0 -17 31
-48 47 -48 21 0 22 -31 3 -93 -24 -77 -24 -74 1 -80 16 -4 20 -12 17 -44 -3
-35 -1 -38 25 -41 26 -3 27 -1 27 38 0 34 4 43 21 47 13 4 19 11 16 22 -40
128 -41 131 -23 144 12 9 17 23 14 42 -3 28 -6 30 -48 33 -34 2 -48 -1 -56
-15z"/>
<path d="M1864 1391 c6 -39 -12 -76 -53 -107 -12 -9 -10 -12 8 -17 11 -3 19
-1 16 4 -8 12 24 59 40 59 25 0 28 -57 6 -94 -12 -19 -21 -50 -21 -74 0 -29
-5 -44 -17 -51 -16 -9 -16 -10 5 -11 19 0 22 5 22 36 0 39 37 111 50 97 16
-16 29 -117 17 -125 -7 -5 -3 -8 11 -8 12 0 22 6 22 14 0 39 -42 210 -64 260
-29 66 -52 75 -42 17z"/>
<path d="M1453 1404 c-9 -4 -13 -29 -13 -75 0 -62 2 -69 20 -69 18 0 20 -7 20
-80 0 -78 9 -97 29 -62 10 16 10 16 11 0 0 -10 5 -18 10 -18 10 0 12 10 15 80
3 83 8 124 12 103 2 -13 9 -23 14 -23 6 0 9 30 7 73 l-3 72 -55 2 c-30 1 -61
-1 -67 -3z"/>
<path d="M826 1365 c-8 -21 -8 -99 0 -119 5 -12 21 -16 65 -16 50 0 62 -4 83
-27 35 -38 45 -21 12 21 -21 29 -34 35 -68 38 -31 2 -44 8 -46 21 -3 14 4 17
37 17 23 0 41 5 41 10 0 6 -18 10 -39 10 -36 0 -40 3 -43 27 -3 31 -32 43 -42
18z"/>
<path d="M1050 1335 c0 -8 9 -15 20 -15 11 0 20 7 20 15 0 8 -9 15 -20 15 -11
0 -20 -7 -20 -15z"/>
<path d="M760 1278 c-48 -76 3 -178 90 -178 21 0 50 5 63 11 26 12 63 67 52
77 -4 4 -10 1 -13 -7 -23 -65 -112 -82 -163 -32 -35 35 -38 80 -9 121 12 17
16 31 10 35 -5 3 -19 -9 -30 -27z"/>
<path d="M1043 1300 c-19 -8 -23 -17 -23 -54 0 -30 5 -46 15 -50 10 -4 15 -20
15 -51 0 -38 3 -45 20 -45 17 0 20 7 20 45 0 31 5 47 15 51 10 4 15 20 15 50
0 39 -3 46 -26 54 -14 6 -26 10 -27 9 -1 0 -12 -4 -24 -9z"/>
<path d="M2435 1066 c-13 -9 -15 -51 -13 -306 l3 -295 55 0 55 0 3 298 c2 233
0 299 -10 302 -29 11 -79 12 -93 1z"/>
<path d="M945 1028 c-3 -7 -4 -105 -2 -218 l2 -205 63 -3 62 -3 0 83 c0 91 8
113 36 104 21 -6 32 -22 74 -105 17 -32 36 -64 44 -70 9 -8 57 -11 147 -9
l133 3 7 29 c11 39 24 46 94 46 68 0 74 -3 95 -45 15 -28 20 -30 79 -33 73 -3
72 -16 14 133 -19 50 -42 108 -50 130 -8 22 -24 58 -34 81 -10 23 -19 48 -19
56 0 27 -24 38 -86 38 -73 0 -60 20 -154 -235 -35 -93 -67 -174 -72 -180 -11
-12 -42 24 -67 80 -10 22 -28 49 -40 59 -28 26 -26 38 8 58 41 23 59 83 42
139 -19 64 -62 79 -234 79 -101 0 -139 -3 -142 -12z m237 -80 c49 -40 12 -91
-62 -86 -43 3 -45 4 -48 36 -2 19 -1 40 2 48 7 18 86 19 108 2z m453 -99 c8
-30 15 -60 15 -66 0 -16 -76 -18 -85 -3 -9 15 36 143 47 132 5 -5 15 -33 23
-63z"/>
<path d="M1890 560 c0 -5 7 -10 15 -10 8 0 15 5 15 10 0 6 -7 10 -15 10 -8 0
-15 -4 -15 -10z"/>
<path d="M416 524 c-19 -18 -21 -65 -4 -82 16 -16 53 -15 67 2 10 12 6 14 -21
13 -30 -2 -33 0 -33 28 0 28 2 30 34 27 29 -2 32 0 21 13 -16 19 -44 19 -64
-1z"/>
<path d="M517 533 c-4 -3 -7 -28 -7 -55 l0 -48 40 0 c22 0 40 5 40 10 0 6 -14
10 -31 10 -39 0 -34 23 7 31 l29 6 -32 8 c-37 8 -35 25 3 25 13 0 24 5 24 10
0 11 -63 14 -73 3z"/>
<path d="M622 485 c1 -33 3 -48 5 -32 5 34 16 34 37 2 26 -39 36 -30 36 31 0
34 -4 53 -10 49 -5 -3 -10 -18 -10 -33 l0 -26 -30 34 -29 35 1 -60z"/>
<path d="M720 530 c0 -5 7 -10 15 -10 11 0 15 -12 15 -45 0 -25 5 -45 10 -45
6 0 10 20 10 45 0 33 4 45 15 45 8 0 15 5 15 10 0 6 -18 10 -40 10 -22 0 -40
-4 -40 -10z"/>
<path d="M827 533 c-11 -10 -8 -103 3 -103 6 0 10 9 10 20 0 26 17 25 40 -2
10 -13 22 -20 26 -16 4 4 1 14 -5 22 -9 11 -9 19 0 34 10 16 10 23 0 36 -13
16 -62 22 -74 9z m53 -29 c0 -9 -7 -14 -17 -12 -25 5 -28 28 -4 28 12 0 21 -6
21 -16z"/>
<path d="M948 529 c-21 -12 -24 -69 -6 -87 7 -7 24 -12 40 -12 45 0 65 61 30
93 -21 19 -39 21 -64 6z m57 -28 c9 -29 -5 -52 -29 -49 -37 5 -34 68 3 68 11
0 22 -8 26 -19z"/>
<path d="M1094 526 c-3 -8 -4 -31 -2 -52 3 -34 6 -39 31 -42 38 -5 57 14 57
54 0 23 -6 37 -19 44 -28 14 -61 12 -67 -4z m61 -41 c0 -23 -5 -31 -22 -33
-20 -3 -23 1 -23 33 0 32 3 36 23 33 17 -2 22 -10 22 -33z"/>
<path d="M1204 526 c-3 -8 -4 -31 -2 -52 3 -37 5 -39 41 -42 21 -2 37 1 37 7
0 6 -14 11 -31 11 -39 0 -34 22 7 31 16 4 25 8 19 9 -19 6 -30 8 -43 9 -23 2
-2 21 24 21 13 0 24 5 24 10 0 16 -70 12 -76 -4z"/>
<path d="M1347 533 c-3 -5 -5 -27 -5 -50 -1 -46 16 -68 25 -34 7 27 18 27 37
-1 19 -26 35 -15 18 12 -7 12 -8 21 -2 25 16 10 12 42 -6 49 -22 8 -62 8 -67
-1z m61 -25 c-7 -19 -38 -22 -38 -4 0 10 9 16 21 16 12 0 19 -5 17 -12z"/>
<path d="M1460 485 l0 -55 41 0 c24 0 38 4 34 10 -3 6 -17 10 -31 10 -15 0
-24 6 -24 15 0 9 10 15 26 15 14 0 23 4 19 10 -3 6 -15 10 -26 10 -10 0 -19 5
-19 10 0 6 11 10 25 10 14 0 25 5 25 10 0 6 -16 10 -35 10 l-35 0 0 -55z"/>
<path d="M1567 533 c-11 -10 -8 -103 3 -103 6 0 10 9 10 21 0 13 8 23 22 27
l22 5 -22 8 c-30 11 -28 29 3 29 14 0 25 5 25 10 0 11 -53 14 -63 3z"/>
<path d="M1650 485 l0 -55 40 0 c22 0 40 5 40 10 0 6 -14 10 -31 10 -35 0 -36
23 -1 28 30 5 28 22 -3 22 -14 0 -25 5 -25 10 0 6 14 10 30 10 17 0 30 5 30
10 0 6 -18 10 -40 10 l-40 0 0 -55z"/>
<path d="M1757 533 c-11 -10 -8 -91 3 -98 6 -3 10 3 10 14 0 28 24 27 43 -1
17 -26 34 -19 19 8 -7 12 -6 23 1 35 8 13 7 21 -2 33 -13 16 -62 22 -74 9z
m58 -22 c3 -5 1 -13 -5 -16 -15 -9 -43 3 -35 15 8 13 32 13 40 1z"/>
<path d="M1864 526 c-3 -8 -4 -31 -2 -52 3 -38 4 -39 43 -42 40 -3 41 12 1 20
-28 4 -21 22 9 26 32 4 23 22 -11 22 -14 0 -22 4 -19 10 3 6 17 10 31 10 13 0
24 5 24 10 0 16 -70 12 -76 -4z"/>
<path d="M1972 485 c1 -33 3 -48 5 -32 5 34 16 34 37 2 25 -38 36 -30 36 25 0
28 -4 50 -10 50 -5 0 -10 -12 -10 -27 l0 -27 -30 34 -29 35 1 -60z"/>
<path d="M2086 518 c-21 -30 -20 -51 3 -72 21 -19 62 -18 69 1 2 9 -5 11 -26
7 -24 -5 -31 -2 -36 14 -11 34 4 55 35 48 31 -6 40 8 13 18 -28 11 -42 7 -58
-16z"/>
<path d="M2190 485 c0 -35 4 -54 10 -50 6 3 10 26 10 50 0 24 -4 47 -10 50 -6
4 -10 -15 -10 -50z"/>
<path d="M2242 491 c-11 -28 -17 -53 -12 -56 5 -3 11 -1 15 5 9 14 52 12 58
-2 2 -7 8 -10 12 -6 9 9 -27 100 -41 105 -6 2 -20 -19 -32 -46z m38 -6 c0 -8
-4 -15 -10 -15 -5 0 -10 7 -10 15 0 8 5 15 10 15 6 0 10 -7 10 -15z"/>
<path d="M1260 390 c0 -5 4 -10 9 -10 6 0 13 5 16 10 3 6 -1 10 -9 10 -9 0
-16 -4 -16 -10z"/>
<path d="M420 316 c0 -55 0 -56 30 -56 71 0 74 101 2 108 l-32 3 0 -55z m58
-4 c3 -27 0 -32 -17 -32 -17 0 -21 6 -21 36 0 28 3 35 18 32 11 -2 18 -14 20
-36z"/>
<path d="M540 324 c-11 -25 -20 -50 -20 -55 0 -14 17 -11 23 4 7 18 46 15 57
-3 5 -8 11 -12 15 -9 7 8 -36 109 -47 109 -5 0 -18 -21 -28 -46z m40 -9 c0 -8
-4 -15 -10 -15 -5 0 -10 7 -10 15 0 8 5 15 10 15 6 0 10 -7 10 -15z"/>
<path d="M697 337 c-32 -75 -32 -94 -1 -62 15 14 43 10 56 -9 4 -6 10 -7 14
-4 9 10 -29 101 -44 106 -6 2 -18 -12 -25 -31z m33 -22 c0 -8 -4 -15 -10 -15
-5 0 -10 7 -10 15 0 8 5 15 10 15 6 0 10 -7 10 -15z"/>
<path d="M797 363 c-17 -17 -5 -45 23 -54 17 -6 30 -16 30 -21 0 -6 -12 -8
-30 -4 -17 3 -30 1 -30 -5 0 -15 27 -22 55 -15 36 9 33 45 -5 59 -40 15 -38
30 2 21 29 -6 31 -5 19 10 -13 16 -52 22 -64 9z"/>
<path d="M900 355 c-15 -17 -6 -33 26 -45 13 -5 24 -14 24 -20 0 -14 -33 -13
-48 2 -9 9 -12 8 -12 -5 0 -18 40 -33 65 -23 26 10 17 44 -15 61 -16 9 -30 18
-30 22 0 3 14 3 30 0 31 -7 42 6 14 17 -25 10 -41 7 -54 -9z"/>
<path d="M997 363 c-11 -10 -8 -103 3 -103 6 0 10 25 10 55 0 56 -1 60 -13 48z"/>
<path d="M1047 364 c-17 -18 -6 -46 23 -55 43 -16 38 -33 -7 -24 -33 6 -35 5
-24 -9 17 -20 55 -21 71 -1 17 20 6 43 -25 51 -14 3 -25 11 -25 16 0 6 11 7
26 4 19 -5 25 -3 22 6 -5 14 -50 23 -61 12z"/>
<path d="M1130 360 c0 -5 7 -10 15 -10 11 0 15 -11 15 -39 0 -22 5 -43 10 -46
6 -4 10 10 10 35 0 27 5 43 15 46 28 11 15 24 -25 24 -22 0 -40 -4 -40 -10z"/>
<path d="M1234 356 c-3 -8 -4 -31 -2 -52 3 -37 5 -39 41 -42 21 -2 37 1 37 7
0 6 -14 11 -31 11 -35 0 -36 23 -1 28 27 4 19 22 -9 22 -10 0 -19 5 -19 10 0
6 14 10 31 10 17 0 28 4 24 10 -9 15 -65 12 -71 -4z"/>
<path d="M1337 364 c-11 -11 -8 -92 3 -99 6 -4 10 5 10 19 0 33 13 33 34 1 9
-14 21 -25 26 -25 13 0 13 97 0 105 -6 4 -10 -7 -10 -27 l-1 -33 -27 33 c-15
18 -31 30 -35 26z"/>
<path d="M1456 354 c-30 -30 -10 -94 29 -94 24 0 45 12 45 26 0 11 -4 12 -19
3 -28 -18 -53 -4 -49 28 3 25 7 28 36 27 34 -2 43 10 16 20 -25 10 -42 7 -58
-10z"/>
<path d="M1559 363 c-3 -27 0 -96 5 -100 3 -4 6 19 6 50 0 31 -2 57 -5 57 -3
0 -5 -3 -6 -7z"/>
<path d="M1616 337 c-24 -58 -28 -77 -17 -77 6 0 11 4 11 9 0 16 34 18 53 3 9
-9 19 -13 22 -10 7 7 -36 108 -46 108 -5 0 -15 -15 -23 -33z m34 -21 c0 -3 -4
-8 -10 -11 -5 -3 -10 -1 -10 4 0 6 5 11 10 11 6 0 10 -2 10 -4z"/>
<path d="M1757 364 c-17 -18 -6 -46 23 -55 17 -6 30 -15 30 -20 0 -13 -34 -11
-49 4 -10 10 -12 8 -9 -8 6 -38 78 -27 78 12 0 8 -13 19 -30 24 -37 13 -40 34
-4 25 19 -5 25 -3 22 6 -5 14 -50 23 -61 12z"/>
<path d="M1868 359 c-12 -6 -18 -22 -18 -45 0 -43 34 -64 75 -46 20 9 25 19
25 46 0 48 -40 70 -82 45z m57 -44 c0 -25 -4 -30 -25 -30 -16 0 -26 6 -28 18
-6 30 6 49 30 45 18 -2 23 -9 23 -33z"/>
<path d="M1982 358 c-6 -6 -12 -27 -12 -45 0 -26 6 -36 24 -45 30 -13 56 -5
56 18 0 13 -3 14 -15 4 -23 -19 -47 -4 -43 27 3 24 7 28 31 26 18 -1 27 2 24
10 -5 17 -50 20 -65 5z"/>
<path d="M2080 315 c0 -30 5 -55 10 -55 6 0 10 25 10 55 0 30 -4 55 -10 55 -5
0 -10 -25 -10 -55z"/>
<path d="M2152 358 c-17 -22 -36 -87 -28 -95 5 -5 11 -2 13 5 6 15 45 16 61 0
20 -20 21 -5 0 50 -20 54 -28 61 -46 40z m22 -49 c-3 -5 -10 -7 -15 -3 -5 3
-7 10 -3 15 3 5 10 7 15 3 5 -3 7 -10 3 -15z"/>
<path d="M2234 357 c-3 -8 -4 -32 -2 -53 3 -37 5 -39 42 -42 25 -2 36 0 31 7
-3 6 -15 11 -26 11 -16 0 -19 7 -19 39 0 41 -16 64 -26 38z"/>
</g>
</svg>
