<?xml version="1.0" standalone="no"?>
<!DOCTYPE svg PUBLIC "-//W3C//DTD SVG 20010904//EN"
 "http://www.w3.org/TR/2001/REC-SVG-20010904/DTD/svg10.dtd">
<svg version="1.0" xmlns="http://www.w3.org/2000/svg"
 width="263.000000pt" height="220.000000pt" viewBox="0 0 263.000000 220.000000"
 preserveAspectRatio="xMidYMid meet">

<g transform="translate(0.000000,220.000000) scale(0.100000,-0.100000)"
fill="#000000" stroke="none">
<path d="M1763 1928 c-6 -7 -12 -20 -15 -29 -3 -8 -23 -20 -45 -27 -81 -24
-163 -111 -163 -172 0 -30 29 -24 35 8 11 47 34 92 52 98 10 3 46 19 80 36 51
26 65 29 77 19 8 -7 24 -10 35 -6 33 10 142 -92 162 -152 24 -72 -15 -206 -64
-218 -23 -6 -227 25 -299 45 -37 11 -41 17 -50 75 -5 30 -32 25 -36 -7 -3 -24
-5 -26 -22 -15 -15 9 -27 9 -52 -2 -40 -16 -41 -16 -158 -1 -92 12 -100 12
-250 -18 -231 -46 -214 -48 -220 18 l-5 55 -180 0 -180 0 -5 -90 -5 -89 -70
-12 c-38 -6 -92 -15 -118 -18 l-48 -7 3 -47 3 -47 87 -3 87 -3 3 -237 c3 -232
3 -238 -19 -262 -52 -59 -72 -184 -39 -245 9 -16 16 -33 16 -38 0 -22 74 -76
121 -87 106 -26 202 7 243 85 18 33 18 36 2 54 -9 10 -35 23 -56 29 -38 9 -39
9 -45 -19 -13 -59 -92 -80 -134 -35 -18 20 -22 35 -22 95 0 81 15 115 56 125
31 8 95 -20 95 -41 0 -12 9 -13 43 -8 23 4 50 12 60 17 17 9 17 11 1 36 -47
74 -124 110 -210 97 l-44 -6 -2 238 -3 238 -87 3 c-66 2 -88 6 -88 16 0 13 25
19 170 41 66 10 70 17 70 107 l0 79 118 -3 117 -3 3 -67 c2 -51 7 -68 17 -68
8 0 112 20 232 45 217 45 218 45 296 31 43 -7 80 -16 84 -19 3 -4 6 -20 5 -36
0 -18 8 -37 22 -50 19 -18 27 -20 54 -10 19 6 36 22 44 40 9 21 20 29 38 29
42 0 590 -104 590 -112 0 -4 -35 -8 -77 -10 l-78 -3 -3 -246 -2 -246 -55 5
c-77 6 -120 -4 -160 -40 -35 -30 -44 -68 -29 -123 7 -29 60 -60 141 -84 83
-25 98 -38 83 -75 -8 -23 -15 -26 -55 -26 -42 0 -47 3 -67 36 -20 35 -23 36
-66 31 -60 -7 -67 -16 -45 -62 30 -63 62 -79 158 -84 70 -2 92 1 128 18 72 35
100 129 55 186 -25 31 -66 51 -158 75 -70 17 -89 41 -54 67 28 20 63 15 89
-13 20 -22 30 -25 79 -22 l55 3 -17 40 c-15 35 -17 72 -14 288 l3 247 79 0 80
0 0 39 c0 37 -2 39 -37 45 -141 23 -223 42 -223 51 0 5 9 21 20 35 17 22 22
23 39 13 12 -7 29 -13 40 -13 20 0 45 23 35 33 -3 3 3 3 14 0 27 -7 52 31 52
79 0 34 -4 40 -42 59 -38 19 -43 20 -53 5 -22 -30 -51 -19 -63 22 -7 21 -27
58 -46 83 -19 24 -36 57 -38 73 -2 16 -11 34 -20 40 -26 16 -35 -2 -9 -20 35
-25 11 -37 -38 -19 -24 8 -54 15 -67 15 -15 0 -24 6 -24 15 0 9 9 15 25 15 16
0 25 6 25 15 0 18 -34 20 -47 3z m-313 -418 c0 -5 -2 -10 -4 -10 -3 0 -8 5
-11 10 -3 6 -1 10 4 10 6 0 11 -4 11 -10z"/>
<path d="M1717 1813 c-14 -13 -6 -33 12 -33 14 0 18 5 14 20 -5 21 -15 25 -26
13z"/>
<path d="M1774 1765 c-7 -18 3 -35 20 -35 19 0 39 27 31 41 -6 8 -10 7 -16 -2
-6 -10 -9 -11 -9 -1 0 17 -19 15 -26 -3z"/>
<path d="M1680 1661 c0 -50 52 -83 63 -41 4 16 11 19 29 15 16 -4 29 -1 37 9
12 14 9 16 -18 16 -17 0 -48 7 -68 15 -45 19 -43 20 -43 -14z"/>
<path d="M1050 1335 c-17 -20 -5 -45 20 -45 11 0 23 7 26 15 6 15 -11 45 -26
45 -4 0 -13 -7 -20 -15z"/>
<path d="M1663 1314 c-8 -21 8 -48 31 -52 20 -4 38 37 24 56 -15 17 -47 15
-55 -4z"/>
<path d="M1340 1305 c-10 -12 -10 -18 0 -30 27 -33 67 -10 48 28 -11 21 -31
22 -48 2z"/>
<path d="M713 1273 c-18 -6 -16 -40 1 -46 8 -3 20 1 27 9 10 12 9 18 -2 28 -8
8 -20 12 -26 9z"/>
<path d="M1038 1252 c-10 -2 -18 -8 -18 -13 0 -6 -9 -7 -20 -4 -31 10 -24 -10
15 -42 l36 -28 -21 -59 c-24 -71 -25 -86 -5 -86 11 0 15 -11 15 -40 0 -38 2
-40 30 -40 28 0 30 2 30 40 0 30 4 40 16 40 18 0 17 17 -7 98 -9 32 -9 49 -1
65 23 46 19 61 -18 67 -19 3 -43 4 -52 2z"/>
<path d="M1713 1223 c7 -41 -11 -77 -52 -109 -12 -9 -10 -12 7 -16 13 -4 19
-2 16 6 -2 6 5 22 16 36 20 24 21 25 35 6 20 -26 19 -45 -5 -81 -11 -16 -20
-46 -20 -65 0 -20 -5 -41 -12 -48 -13 -13 -5 -27 11 -17 6 3 11 21 11 38 0 18
9 47 21 66 28 45 43 29 43 -49 1 -50 4 -60 19 -60 9 0 17 4 17 9 0 33 -44 210
-64 258 -30 71 -52 84 -43 26z"/>
<path d="M1318 1229 c-14 -8 -18 -24 -18 -74 0 -58 2 -65 20 -65 18 0 20 -7
20 -73 l0 -74 30 -1 29 -1 3 77 c3 67 5 77 21 74 15 -2 17 6 17 61 0 36 -5 68
-12 75 -15 15 -86 15 -110 1z"/>
<path d="M704 1196 c-3 -7 -4 -40 -2 -72 l3 -59 60 -3 c51 -2 63 -6 82 -29 30
-37 40 -22 14 21 -19 30 -28 35 -64 38 -30 2 -43 8 -45 21 -3 14 4 17 32 17
20 0 36 5 36 10 0 6 -15 10 -33 10 -27 0 -35 5 -44 30 -12 32 -30 39 -39 16z"/>
<path d="M920 1166 c0 -8 4 -17 9 -20 11 -7 33 18 24 27 -12 12 -33 7 -33 -7z"/>
<path d="M642 1115 c-28 -36 -29 -97 -2 -135 24 -34 77 -54 116 -44 33 7 84
51 84 71 0 20 -18 15 -25 -7 -8 -24 -54 -50 -90 -50 -39 0 -85 50 -85 92 0 18
7 44 16 56 24 34 11 49 -14 17z"/>
<path d="M920 1130 c-21 -5 -25 -13 -28 -48 -2 -31 1 -44 12 -48 12 -4 16 -20
16 -54 0 -43 3 -49 20 -47 17 1 20 8 20 48 0 32 5 49 15 53 16 6 21 62 7 82
-11 16 -34 21 -62 14z"/>
<path d="M2265 900 c-4 -7 -8 -385 -5 -573 0 -15 8 -18 53 -15 l52 3 3 289 c2
225 -1 291 -10 298 -18 11 -86 10 -93 -2z"/>
<path d="M2461 896 c-13 -16 -14 -555 -1 -576 4 -7 27 -10 56 -8 l49 3 3 289
c2 225 -1 291 -10 298 -21 13 -85 9 -97 -6z"/>
<path d="M815 858 c-2 -7 -3 -101 -2 -208 l2 -195 63 -3 62 -3 0 85 c0 47 4
87 8 90 25 15 53 -11 94 -87 l43 -82 139 0 140 0 8 33 9 33 87 -3 c69 -2 87
-6 88 -18 1 -8 2 -23 3 -32 1 -15 11 -18 67 -18 59 0 65 2 59 18 -4 9 -18 46
-30 82 -13 36 -33 90 -45 120 -12 30 -26 68 -32 85 -7 16 -17 41 -25 55 -7 14
-13 33 -13 43 0 15 -10 17 -73 17 l-72 0 -22 -57 c-13 -32 -47 -123 -77 -203
-29 -80 -59 -145 -64 -145 -6 0 -25 27 -43 60 -35 67 -66 105 -86 105 -25 0
-13 18 16 23 47 10 71 43 71 100 0 102 -28 117 -225 117 -107 0 -147 -3 -150
-12z m239 -74 c40 -39 -2 -88 -71 -82 -35 3 -38 6 -41 36 -2 19 -1 40 2 48 8
20 90 19 110 -2z m439 -95 c10 -33 15 -64 12 -70 -8 -13 -72 -11 -81 2 -9 15
26 129 40 129 6 0 19 -27 29 -61z"/>
<path d="M1745 410 c-3 -5 1 -10 10 -10 9 0 13 5 10 10 -3 6 -8 10 -10 10 -2
0 -7 -4 -10 -10z"/>
<path d="M300 370 c-25 -25 -25 -41 -2 -70 14 -18 25 -22 45 -16 36 9 35 27
-2 20 -23 -5 -29 -2 -34 15 -2 11 1 28 8 38 12 15 17 16 34 5 12 -7 21 -8 21
-2 0 9 -31 30 -44 30 -3 0 -15 -9 -26 -20z"/>
<path d="M407 383 c-4 -3 -7 -28 -7 -55 l0 -48 35 0 c19 0 35 5 35 10 0 6 -11
10 -25 10 -34 0 -32 28 3 33 l27 4 -27 2 c-36 1 -39 31 -3 31 14 0 25 4 25 8
0 10 -54 14 -63 5z"/>
<path d="M600 381 c0 -5 7 -11 15 -15 10 -3 15 -19 15 -46 0 -25 4 -39 10 -35
6 3 10 24 10 46 0 30 4 39 17 39 9 0 13 3 9 7 -10 11 -76 13 -76 4z"/>
<path d="M707 384 c-4 -4 -7 -30 -6 -58 0 -41 2 -46 9 -28 12 28 25 28 44 0
18 -25 33 -18 18 8 -7 12 -6 24 1 36 8 11 8 21 2 27 -14 14 -59 23 -68 15z
m48 -23 c3 -5 1 -13 -5 -16 -15 -9 -43 3 -35 15 8 13 32 13 40 1z"/>
<path d="M822 374 c-24 -17 -30 -62 -10 -82 30 -30 88 -2 88 43 0 20 -32 55
-50 55 -3 0 -16 -7 -28 -16z m54 -30 c8 -30 -6 -47 -32 -42 -35 6 -30 68 5 68
14 0 23 -9 27 -26z"/>
<path d="M965 382 c-3 -3 -5 -27 -5 -54 l0 -48 35 0 c74 0 75 96 1 104 -14 2
-28 1 -31 -2z m61 -36 c7 -31 -1 -46 -27 -46 -15 0 -19 7 -19 35 0 28 4 35 20
35 12 0 22 -9 26 -24z"/>
<path d="M1075 382 c-3 -3 -5 -27 -5 -54 l0 -48 41 0 c24 0 38 4 34 10 -3 6
-18 10 -31 10 -32 0 -27 22 7 31 l24 6 -24 4 c-34 6 -39 29 -6 29 14 0 24 4
21 9 -6 9 -52 12 -61 3z"/>
<path d="M1217 383 c-11 -10 -8 -103 3 -103 6 0 10 9 10 20 0 25 8 25 35 0
l21 -20 1 49 c1 42 -2 50 -21 55 -28 8 -41 7 -49 -1z m53 -28 c0 -8 -9 -15
-20 -15 -11 0 -20 7 -20 15 0 8 9 15 20 15 11 0 20 -7 20 -15z"/>
<path d="M1325 382 c-3 -3 -5 -27 -5 -54 l0 -48 35 0 c19 0 35 5 35 10 0 6
-12 10 -26 10 -32 0 -27 22 7 31 24 7 24 7 -3 8 -37 1 -39 31 -2 31 14 0 23 4
20 9 -6 9 -52 12 -61 3z"/>
<path d="M1424 376 c-3 -7 -3 -33 -1 -57 3 -35 5 -40 11 -22 4 11 18 24 29 28
l22 8 -22 4 c-28 5 -30 33 -3 33 11 0 20 5 20 10 0 15 -50 12 -56 -4z"/>
<path d="M1517 383 c-4 -3 -7 -28 -7 -55 l0 -48 35 0 c19 0 35 5 35 10 0 6
-12 10 -26 10 -32 0 -27 22 7 31 24 7 24 7 -3 8 -37 1 -39 31 -2 31 14 0 23 4
19 10 -7 11 -48 14 -58 3z"/>
<path d="M1612 373 c-12 -26 -14 -81 -2 -88 5 -3 10 1 10 9 0 27 23 30 42 6
21 -26 35 -21 20 6 -7 12 -6 24 2 36 9 16 7 22 -8 34 -27 19 -53 18 -64 -3z
m53 -12 c3 -5 1 -13 -5 -16 -15 -9 -43 3 -35 15 8 13 32 13 40 1z"/>
<path d="M1720 380 c-6 -4 -10 -26 -8 -51 3 -43 4 -44 41 -47 21 -2 37 1 37 7
0 6 -14 11 -31 11 -39 0 -34 23 7 31 l29 6 -28 4 c-37 5 -38 23 -1 30 19 4 24
8 14 12 -19 7 -46 6 -60 -3z"/>
<path d="M1942 374 c-25 -18 -30 -65 -8 -84 22 -17 60 -8 65 15 3 17 1 18 -13
6 -22 -19 -46 -6 -46 24 0 30 24 43 45 25 12 -10 15 -10 15 3 0 8 -7 18 -16
21 -20 8 -16 9 -42 -10z"/>
<path d="M500 329 c0 -32 4 -48 10 -44 6 4 8 15 5 26 -9 27 10 24 29 -6 25
-38 36 -30 36 25 0 28 -4 50 -10 50 -5 0 -10 -12 -10 -27 l-1 -28 -20 28 c-30
39 -39 34 -39 -24z"/>
<path d="M1810 336 c0 -25 5 -48 10 -51 6 -4 10 5 10 19 0 33 7 33 32 1 11
-14 24 -23 29 -20 12 8 12 95 -1 95 -5 0 -10 -12 -10 -27 l-1 -28 -22 28 c-33
40 -47 35 -47 -17z"/>
<path d="M2030 329 c0 -31 4 -48 10 -44 6 3 10 26 10 51 0 24 -4 44 -10 44 -5
0 -10 -23 -10 -51z"/>
<path d="M2084 345 c-18 -44 -19 -74 -2 -57 16 16 55 15 61 0 2 -7 7 -10 11
-7 10 10 -27 99 -42 99 -7 0 -20 -16 -28 -35z m32 -22 c-10 -10 -19 5 -10 18
6 11 8 11 12 0 2 -7 1 -15 -2 -18z"/>
<path d="M1128 243 c7 -3 16 -2 19 1 4 3 -2 6 -13 5 -11 0 -14 -3 -6 -6z"/>
<path d="M300 170 l0 -51 36 3 c46 4 62 26 48 65 -8 23 -16 29 -47 31 l-37 3
0 -51z m67 14 c8 -20 -8 -48 -31 -52 -12 -3 -16 4 -16 32 0 30 4 36 20 36 11
0 23 -7 27 -16z"/>
<path d="M436 211 c-11 -17 -35 -91 -30 -91 2 0 13 6 24 12 16 10 24 10 40 0
30 -18 31 -16 12 35 -17 46 -35 63 -46 44z m24 -41 c0 -5 -4 -10 -10 -10 -5 0
-10 5 -10 10 0 6 5 10 10 10 6 0 10 -4 10 -10z"/>
<path d="M580 196 c-5 -14 -14 -37 -20 -51 -11 -28 -8 -30 20 -13 16 10 24 10
40 0 30 -18 31 -16 12 35 -20 55 -38 65 -52 29z m30 -26 c0 -5 -4 -10 -10 -10
-5 0 -10 5 -10 10 0 6 5 10 10 10 6 0 10 -4 10 -10z"/>
<path d="M677 214 c-17 -17 -5 -43 25 -53 25 -9 29 -14 20 -23 -10 -10 -17
-10 -32 0 -24 15 -30 15 -30 2 0 -15 39 -32 60 -25 30 10 27 53 -5 61 -14 3
-25 11 -25 16 0 6 11 7 26 4 19 -5 25 -3 22 6 -5 14 -50 23 -61 12z"/>
<path d="M777 214 c-17 -17 -5 -43 25 -53 25 -9 29 -14 20 -23 -10 -10 -17
-10 -32 0 -16 10 -20 10 -20 -2 0 -28 63 -29 74 0 6 16 -19 44 -40 44 -8 0
-14 5 -14 11 0 7 10 9 26 5 19 -5 25 -3 22 6 -5 14 -50 23 -61 12z"/>
<path d="M866 207 c-5 -9 -5 -34 0 -55 7 -34 8 -35 12 -10 2 16 2 40 0 56 -4
22 -6 24 -12 9z"/>
<path d="M917 214 c-17 -17 -5 -43 25 -53 25 -9 29 -14 20 -23 -10 -10 -17
-10 -32 0 -16 10 -20 10 -20 -2 0 -18 38 -28 62 -15 29 16 25 25 -27 65 -19
15 -19 15 8 11 18 -3 26 0 24 7 -4 13 -49 20 -60 10z"/>
<path d="M1013 206 c11 -8 17 -27 17 -50 0 -20 5 -36 10 -36 6 0 10 16 10 36
0 23 6 42 18 50 15 12 12 13 -28 13 -40 0 -43 -1 -27 -13z"/>
<path d="M1100 170 l0 -50 43 2 c36 1 38 2 10 5 -40 5 -46 33 -8 33 14 0 25 5
25 10 0 6 -11 10 -25 10 -14 0 -25 5 -25 10 0 6 11 10 25 10 14 0 25 5 25 10
0 6 -16 10 -35 10 l-35 0 0 -50z"/>
<path d="M1201 168 c1 -29 3 -44 6 -33 8 33 19 37 33 10 23 -42 40 -31 40 25
0 28 -4 50 -10 50 -5 0 -10 -11 -10 -25 0 -14 -4 -25 -8 -25 -5 0 -14 11 -20
25 -19 41 -32 29 -31 -27z"/>
<path d="M1310 201 c-13 -26 -13 -54 2 -69 15 -15 64 -16 73 -1 11 17 -3 23
-20 9 -20 -17 -47 5 -43 34 2 17 10 21 36 20 34 -2 43 10 16 20 -29 11 -53 6
-64 -13z"/>
<path d="M1410 170 c0 -27 5 -50 10 -50 6 0 10 23 10 50 0 28 -4 50 -10 50 -5
0 -10 -22 -10 -50z"/>
<path d="M1467 173 c-9 -25 -14 -49 -11 -52 4 -3 9 0 11 7 3 6 15 12 28 12 13
0 25 -6 28 -12 2 -7 8 -10 12 -6 11 10 -24 98 -39 98 -6 0 -19 -21 -29 -47z
m43 -3 c0 -5 -4 -10 -10 -10 -5 0 -10 5 -10 10 0 6 5 10 10 10 6 0 10 -4 10
-10z"/>
<path d="M1604 206 c-8 -20 3 -35 34 -47 18 -7 22 -13 15 -20 -8 -8 -17 -7
-32 0 -13 7 -21 8 -21 2 0 -19 38 -33 60 -21 29 15 25 37 -10 55 -37 19 -39
29 -5 22 16 -3 24 0 22 7 -6 18 -56 20 -63 2z"/>
<path d="M1712 208 c-21 -21 -14 -66 13 -84 23 -15 27 -15 50 0 29 19 33 56 9
80 -18 19 -55 21 -72 4z m63 -29 c8 -26 -16 -54 -39 -46 -16 6 -22 48 -9 60
14 14 42 6 48 -14z"/>
<path d="M1825 197 c-23 -36 -6 -77 34 -77 16 0 33 5 36 11 11 16 -3 23 -19
10 -21 -18 -36 -5 -36 31 0 29 2 30 31 24 22 -4 29 -2 27 7 -3 6 -16 13 -31
15 -18 2 -30 -4 -42 -21z"/>
<path d="M1927 213 c-11 -10 -8 -93 3 -93 6 0 10 23 10 50 0 51 -1 55 -13 43z"/>
<path d="M1979 175 c-23 -52 -21 -63 10 -43 17 10 25 10 41 0 11 -6 22 -12 24
-12 9 0 -32 94 -43 98 -6 2 -21 -17 -32 -43z m41 -5 c0 -5 -4 -10 -10 -10 -5
0 -10 5 -10 10 0 6 5 10 10 10 6 0 10 -4 10 -10z"/>
<path d="M2076 213 c-3 -3 -6 -26 -6 -50 l0 -43 43 1 c29 2 34 3 15 6 -25 4
-28 8 -28 43 0 37 -10 56 -24 43z"/>
</g>
</svg>
