<?xml version="1.0" standalone="no"?>
<!DOCTYPE svg PUBLIC "-//W3C//DTD SVG 20010904//EN"
 "http://www.w3.org/TR/2001/REC-SVG-20010904/DTD/svg10.dtd">
<svg version="1.0" xmlns="http://www.w3.org/2000/svg"
 width="261.000000pt" height="209.000000pt" viewBox="0 0 261.000000 209.000000"
 preserveAspectRatio="xMidYMid meet">

<g transform="translate(0.000000,209.000000) scale(0.100000,-0.100000)"
fill="#000000" stroke="none">
<path d="M1623 1743 c-22 -8 -14 -23 13 -23 15 0 24 5 22 12 -5 14 -18 18 -35
11z"/>
<path d="M1723 1707 c25 -21 22 -40 -5 -31 -57 18 -89 22 -85 11 2 -7 15 -12
28 -12 30 0 123 -76 138 -113 27 -65 18 -135 -23 -187 l-23 -29 -109 16 c-159
24 -186 35 -199 79 -10 36 -35 44 -35 11 0 -17 -11 -19 -102 -23 -18 -1 -69 2
-113 6 -67 6 -101 3 -215 -19 -74 -15 -143 -30 -152 -32 -15 -5 -18 2 -18 40
0 25 -3 47 -7 49 -5 3 -78 6 -163 8 l-155 4 -5 -80 -5 -80 -100 -15 -100 -15
0 -40 0 -40 77 -3 77 -3 3 -210 c2 -172 0 -213 -11 -222 -26 -22 -51 -91 -51
-142 0 -114 74 -185 194 -185 75 0 117 23 146 79 22 44 20 48 -38 57 -38 6
-41 4 -56 -24 -23 -44 -91 -48 -118 -8 -4 6 -8 43 -8 83 0 65 2 73 26 92 36
28 68 26 93 -5 18 -23 24 -25 65 -19 26 4 46 12 46 17 0 5 -10 24 -22 40 -29
41 -97 70 -156 67 l-47 -3 -3 207 -2 207 -80 0 c-61 0 -80 3 -80 14 0 9 25 17
83 26 130 20 127 18 127 100 l0 70 105 0 105 0 0 -60 c0 -43 4 -60 13 -60 7 0
99 18 204 40 183 38 195 39 260 27 66 -12 68 -13 71 -44 7 -67 77 -83 104 -23
7 16 19 30 26 30 16 0 503 -89 517 -94 6 -3 -14 -5 -43 -5 -97 -2 -94 6 -92
-219 1 -108 1 -202 1 -207 -1 -6 -20 -9 -44 -7 -93 8 -162 -32 -173 -99 -8
-50 33 -92 112 -114 80 -22 89 -28 89 -61 0 -27 -3 -29 -41 -32 -37 -3 -45 1
-64 27 -16 24 -29 31 -53 31 -45 0 -59 -12 -52 -41 15 -60 67 -89 159 -89 81
0 128 21 150 67 39 82 11 130 -96 162 -40 13 -80 26 -88 30 -26 14 -24 40 4
51 30 11 56 4 74 -22 10 -13 26 -18 63 -18 27 0 49 2 49 5 0 4 -7 19 -15 35
-13 25 -15 68 -13 247 l3 218 73 3 72 3 0 29 c0 33 2 32 -130 56 -52 9 -96 18
-98 19 -1 1 3 14 9 29 12 26 33 34 44 16 11 -17 47 -11 52 9 3 11 10 18 17 15
26 -10 66 66 49 92 -5 6 -23 19 -42 29 -27 13 -35 14 -42 4 -17 -29 -40 -17
-60 29 -11 26 -31 58 -44 72 -13 14 -25 38 -27 55 -2 21 -9 31 -23 33 -19 3
-19 2 -2 -11z"/>
<path d="M1595 1700 c-3 -5 -14 -10 -24 -10 -49 0 -151 -103 -151 -152 0 -29
29 -21 35 10 11 52 30 76 71 92 53 19 101 55 86 64 -6 3 -13 2 -17 -4z"/>
<path d="M1572 1624 c4 -21 22 -23 26 -1 2 10 -3 17 -13 17 -10 0 -15 -6 -13
-16z"/>
<path d="M1630 1589 c0 -25 33 -22 38 4 2 12 -3 17 -17 17 -15 0 -21 -6 -21
-21z"/>
<path d="M1540 1512 c0 -25 28 -62 47 -62 9 0 13 3 10 7 -14 13 14 33 33 23
13 -7 20 -6 24 6 9 24 9 24 -33 24 -22 0 -43 5 -46 10 -10 17 -35 11 -35 -8z"/>
<path d="M990 1211 c0 -24 13 -33 35 -25 23 9 14 38 -13 42 -16 3 -22 -2 -22
-17z"/>
<path d="M1534 1206 c-9 -24 4 -48 23 -44 12 2 18 12 18 28 0 29 -32 41 -41
16z"/>
<path d="M1250 1194 c-11 -12 -10 -18 3 -32 16 -15 18 -15 34 0 13 14 14 20 3
32 -7 9 -16 16 -20 16 -4 0 -13 -7 -20 -16z"/>
<path d="M697 1164 c-14 -15 -6 -34 14 -34 14 0 19 5 17 17 -3 18 -20 27 -31
17z"/>
<path d="M970 1139 c0 -6 -9 -8 -20 -4 -29 9 -25 -6 11 -36 l31 -25 -17 -59
c-15 -53 -15 -59 -1 -67 10 -5 16 -22 16 -42 0 -28 3 -32 23 -31 18 1 23 8 25
38 2 24 8 37 18 37 17 0 17 -2 -1 50 -17 49 -20 90 -5 90 6 0 10 14 10 30 0
29 -2 30 -45 30 -25 0 -45 -5 -45 -11z"/>
<path d="M1573 1111 c1 -23 4 -41 8 -41 3 0 11 -11 17 -24 8 -19 7 -30 -9 -55
-10 -17 -19 -46 -19 -64 0 -18 -5 -38 -12 -45 -9 -9 -8 -12 5 -12 13 0 17 9
17 38 0 36 32 93 45 80 4 -3 7 -31 8 -62 1 -37 6 -56 15 -56 15 0 15 39 -2
115 -29 132 -77 213 -73 126z"/>
<path d="M1231 1131 c-8 -5 -16 -32 -19 -64 -4 -49 -2 -55 17 -60 19 -5 21
-12 21 -74 1 -57 3 -65 13 -51 12 15 14 15 24 0 9 -14 12 -2 12 56 1 57 4 72
16 72 22 0 22 115 -1 124 -23 9 -67 7 -83 -3z"/>
<path d="M694 1097 c-3 -8 -4 -36 -2 -63 l3 -49 55 -3 c43 -2 59 -8 72 -25 9
-12 20 -19 23 -15 15 15 -37 63 -73 68 -45 6 -56 30 -13 30 16 0 33 5 36 10 4
6 -8 10 -29 10 -28 0 -35 4 -38 22 -4 26 -26 36 -34 15z"/>
<path d="M880 1075 c0 -8 7 -15 15 -15 8 0 15 7 15 15 0 8 -7 15 -15 15 -8 0
-15 -7 -15 -15z"/>
<path d="M1538 1039 c-13 -14 -14 -19 -3 -23 7 -2 15 4 19 17 7 27 5 28 -16 6z"/>
<path d="M646 1037 c-11 -8 -20 -31 -23 -60 -5 -43 -3 -49 27 -77 36 -34 74
-39 119 -15 26 13 41 33 41 55 0 5 -13 -5 -29 -21 -37 -37 -88 -40 -119 -6
-27 28 -29 83 -5 109 20 22 13 32 -11 15z"/>
<path d="M873 1043 c-15 -6 -17 -79 -3 -88 6 -3 10 -24 10 -46 0 -32 3 -39 20
-39 17 0 20 7 20 45 0 25 5 45 10 45 6 0 10 17 10 39 0 32 -4 40 -22 45 -26 6
-28 6 -45 -1z"/>
<path d="M2053 838 c-10 -15 -15 -380 -7 -456 l6 -53 46 3 47 3 3 249 c2 193
-1 251 -10 258 -20 12 -76 9 -85 -4z"/>
<path d="M2225 838 c-3 -7 -4 -124 -3 -258 l3 -245 48 -3 47 -3 -2 258 -3 258
-43 3 c-28 2 -44 -1 -47 -10z"/>
<path d="M2412 842 c-9 -7 -12 -65 -10 -258 l3 -249 48 -3 47 -3 -2 258 -3
258 -35 3 c-19 1 -41 -2 -48 -6z"/>
<path d="M792 638 l3 -183 52 -3 52 -3 3 77 c4 113 27 109 94 -14 l31 -57 117
-3 117 -3 12 30 c10 28 14 30 80 33 l69 3 13 -32 c13 -31 17 -33 64 -33 28 0
51 3 51 8 0 7 -33 98 -49 137 -57 133 -71 170 -71 184 0 29 -22 41 -77 41 -50
0 -54 -2 -68 -32 -28 -63 -83 -213 -90 -245 -4 -18 -11 -35 -16 -38 -5 -4 -9
-15 -9 -26 0 -32 -18 -21 -46 29 -15 26 -41 61 -57 79 l-30 32 24 10 c14 5 30
16 37 24 19 22 25 78 13 110 -17 44 -62 57 -201 57 l-120 0 2 -182z m216 80
c4 -32 -24 -51 -71 -46 -29 3 -32 6 -35 41 l-3 38 53 -3 c49 -3 53 -5 56 -30z
m375 -65 c8 -29 12 -55 9 -58 -3 -3 -21 -5 -40 -5 l-35 0 7 39 c9 57 25 96 35
85 5 -5 15 -32 24 -61z"/>
<path d="M337 383 c-12 -12 -7 -60 8 -73 16 -14 47 -10 52 6 2 7 -6 10 -22 6
-24 -4 -26 -2 -23 24 2 23 7 29 26 27 12 -2 22 2 22 7 0 11 -53 14 -63 3z"/>
<path d="M430 345 c0 -43 1 -45 30 -45 17 0 30 5 30 10 0 6 -11 10 -25 10 -14
0 -25 5 -25 10 0 6 11 10 25 10 14 0 25 5 25 10 0 6 -11 10 -25 10 -34 0 -32
18 3 23 25 4 25 4 -5 6 -33 1 -33 0 -33 -44z"/>
<path d="M510 350 c0 -22 5 -40 10 -40 6 0 10 10 10 23 1 21 1 21 21 -6 11
-15 25 -25 30 -21 12 7 12 84 -1 84 -5 0 -10 -10 -10 -22 l-1 -23 -18 23 c-28
33 -41 27 -41 -18z"/>
<path d="M618 383 c6 -2 12 -21 12 -41 0 -26 3 -33 9 -23 5 8 7 21 3 29 -3 8
3 21 13 28 17 13 16 14 -16 13 -19 0 -28 -3 -21 -6z"/>
<path d="M691 348 c1 -24 3 -35 6 -25 6 22 12 22 37 -2 l21 -20 2 45 c1 44 1
44 -33 44 -34 0 -34 -1 -33 -42z m49 22 c0 -5 -9 -10 -21 -10 -11 0 -17 5 -14
10 3 6 13 10 21 10 8 0 14 -4 14 -10z"/>
<path d="M787 383 c-13 -12 -7 -60 8 -73 36 -30 87 18 64 62 -9 18 -58 25 -72
11z m58 -23 c8 -26 -1 -40 -26 -40 -14 0 -19 7 -19 30 0 23 5 30 19 30 11 0
22 -9 26 -20z"/>
<path d="M920 345 c0 -41 2 -45 25 -45 15 0 31 9 40 24 23 34 5 66 -35 66 -29
0 -30 -2 -30 -45z m55 15 c8 -24 -1 -40 -21 -40 -17 0 -28 24 -20 45 8 22 34
18 41 -5z"/>
<path d="M1012 348 c3 -40 5 -43 36 -46 18 -2 32 1 32 7 0 6 -11 11 -25 11
-14 0 -25 5 -25 10 0 6 9 10 20 10 11 0 20 5 20 10 0 6 -9 10 -20 10 -27 0
-25 18 3 23 15 3 12 5 -11 6 -33 1 -33 1 -30 -41z"/>
<path d="M1137 383 c-11 -10 -8 -71 3 -78 6 -3 10 3 10 14 0 25 13 27 30 6 7
-8 17 -15 23 -15 7 0 7 4 -1 12 -8 8 -8 17 -1 30 5 10 7 23 4 28 -7 11 -58 14
-68 3z m53 -13 c0 -5 -9 -10 -21 -10 -11 0 -17 5 -14 10 3 6 13 10 21 10 8 0
14 -4 14 -10z"/>
<path d="M1230 345 c0 -43 1 -45 30 -45 17 0 30 5 30 10 0 6 -9 10 -20 10 -11
0 -20 5 -20 10 0 6 9 10 20 10 11 0 20 5 20 10 0 6 -12 10 -27 10 -29 0 -22
15 12 23 13 3 9 5 -12 6 -33 1 -33 0 -33 -44z"/>
<path d="M1314 366 c-3 -14 -1 -33 5 -43 9 -16 10 -16 11 -1 0 9 10 19 23 21
l22 4 -22 8 c-13 4 -23 11 -23 15 0 5 10 11 23 13 19 4 18 4 -5 6 -21 1 -29
-4 -34 -23z"/>
<path d="M1392 348 c3 -40 5 -43 36 -46 18 -2 32 1 32 7 0 6 -11 11 -25 11
-14 0 -25 5 -25 10 0 6 9 10 20 10 11 0 20 5 20 10 0 6 -9 10 -20 10 -30 0
-24 18 8 23 21 3 19 4 -11 6 l-38 1 3 -42z"/>
<path d="M1480 350 c0 -22 5 -40 10 -40 6 0 10 7 10 15 0 21 9 19 29 -7 18
-21 18 -21 18 25 1 47 1 47 -33 47 -33 0 -34 -1 -34 -40z m50 20 c0 -5 -7 -10
-15 -10 -8 0 -15 5 -15 10 0 6 7 10 15 10 8 0 15 -4 15 -10z"/>
<path d="M1572 348 c3 -41 5 -43 37 -46 21 -2 31 0 26 7 -3 6 -15 11 -26 11
-10 0 -19 5 -19 10 0 6 9 10 20 10 11 0 20 5 20 10 0 6 -9 10 -20 10 -30 0
-24 18 8 23 21 3 19 4 -11 6 l-38 1 3 -42z"/>
<path d="M1660 350 c0 -22 5 -40 10 -40 6 0 10 9 10 21 0 18 2 18 25 -8 l24
-28 -1 50 c0 28 -3 40 -5 28 -5 -28 -14 -29 -31 -3 -19 31 -32 24 -32 -20z"/>
<path d="M1760 375 c-31 -37 24 -96 58 -61 14 14 13 15 -14 13 -25 -2 -29 2
-29 23 0 21 4 25 28 23 15 -1 25 2 22 8 -9 14 -51 11 -65 -6z"/>
<path d="M1853 350 c0 -25 2 -35 4 -22 2 12 2 32 0 45 -2 12 -4 2 -4 -23z"/>
<path d="M1894 355 c-19 -47 -18 -58 6 -43 16 10 24 10 40 0 24 -15 25 -4 6
43 -8 19 -20 35 -26 35 -6 0 -18 -16 -26 -35z m36 -5 c0 -5 -4 -10 -10 -10 -5
0 -10 5 -10 10 0 6 5 10 10 10 6 0 10 -4 10 -10z"/>
<path d="M1060 270 c0 -5 5 -10 10 -10 6 0 10 5 10 10 0 6 -4 10 -10 10 -5 0
-10 -4 -10 -10z"/>
<path d="M340 205 c0 -43 1 -45 28 -45 33 0 52 16 52 45 0 29 -19 45 -52 45
-27 0 -28 -2 -28 -45z m58 5 c4 -23 -15 -43 -30 -34 -10 6 -11 48 -1 58 12 12
28 0 31 -24z"/>
<path d="M447 209 c-9 -24 -14 -45 -11 -48 4 -3 9 0 11 7 6 14 39 16 48 2 3
-5 10 -10 15 -10 12 0 -23 83 -37 87 -5 2 -17 -15 -26 -38z m33 -5 c0 -8 -5
-12 -10 -9 -6 4 -8 11 -5 16 9 14 15 11 15 -7z"/>
<path d="M577 208 c-9 -23 -14 -44 -11 -47 4 -3 9 0 11 7 6 15 35 16 51 0 6
-6 14 -10 16 -7 7 7 -32 89 -42 89 -5 0 -16 -19 -25 -42z m33 -4 c0 -8 -5 -12
-10 -9 -6 4 -8 11 -5 16 9 14 15 11 15 -7z"/>
<path d="M667 243 c-15 -14 -6 -34 19 -43 14 -6 22 -14 19 -20 -4 -7 -13 -6
-27 1 -16 9 -19 8 -16 -3 3 -7 18 -13 34 -13 39 0 45 30 10 46 -34 16 -33 31
0 23 19 -5 25 -4 20 5 -8 12 -48 15 -59 4z"/>
<path d="M757 243 c-15 -14 -6 -34 20 -44 19 -7 23 -13 15 -21 -8 -8 -16 -7
-28 3 -15 12 -17 12 -12 -1 3 -9 17 -15 34 -15 39 0 45 30 10 46 -31 14 -35
33 -6 24 11 -4 20 -2 20 4 0 12 -43 15 -53 4z"/>
<path d="M837 243 c-11 -10 -8 -71 3 -78 6 -4 10 12 10 39 0 47 -2 51 -13 39z"/>
<path d="M877 243 c-15 -14 -6 -34 19 -43 14 -6 22 -14 19 -20 -4 -7 -13 -6
-27 1 -16 9 -19 8 -16 -3 3 -7 18 -13 34 -13 39 0 45 30 10 46 -34 16 -33 31
0 23 19 -5 25 -4 20 5 -8 12 -48 15 -59 4z"/>
<path d="M963 239 c11 -6 17 -22 17 -44 0 -19 5 -35 10 -35 6 0 10 18 10 39 0
22 5 42 13 44 6 3 -6 6 -28 6 -32 0 -36 -2 -22 -10z"/>
<path d="M1040 205 l0 -45 38 1 c35 1 36 2 8 8 -35 7 -37 23 -4 32 l23 6 -23
4 c-30 5 -30 22 0 31 20 5 18 6 -9 7 -32 1 -33 0 -33 -44z"/>
<path d="M1127 244 c-10 -11 -9 -72 2 -79 5 -3 11 7 13 22 l4 28 14 -27 c20
-42 40 -36 40 11 0 22 -4 43 -10 46 -6 4 -10 -6 -10 -22 l0 -28 -23 28 c-12
16 -26 25 -30 21z"/>
<path d="M1219 229 c-16 -31 3 -69 35 -69 14 0 28 5 31 11 10 16 -3 23 -18 10
-11 -9 -17 -8 -28 5 -18 22 1 50 31 46 14 -2 20 0 16 7 -12 19 -55 12 -67 -10z"/>
<path d="M1310 206 c0 -25 5 -46 10 -46 6 0 10 18 10 39 0 22 -4 43 -10 46 -6
4 -10 -12 -10 -39z"/>
<path d="M1357 208 c-9 -23 -14 -44 -11 -47 4 -3 9 0 11 7 6 15 35 16 51 0 6
-6 14 -10 16 -7 7 7 -32 89 -42 89 -5 0 -16 -19 -25 -42z m33 -4 c0 -8 -5 -12
-10 -9 -6 4 -8 11 -5 16 9 14 15 11 15 -7z"/>
<path d="M1487 243 c-15 -14 -6 -34 20 -44 19 -7 23 -13 15 -21 -8 -8 -16 -7
-28 3 -15 12 -17 12 -12 -1 2 -8 16 -15 29 -15 32 0 40 40 10 48 -12 3 -21 10
-21 17 0 7 8 9 21 5 15 -5 19 -4 15 4 -8 12 -39 15 -49 4z"/>
<path d="M1572 238 c-7 -7 -12 -21 -12 -33 0 -47 62 -63 81 -21 22 47 -33 90
-69 54z m52 -21 c8 -12 7 -21 -6 -33 -20 -20 -38 -11 -38 20 0 39 23 46 44 13z"/>
<path d="M1672 238 c-29 -29 -7 -78 35 -78 13 0 23 6 23 14 0 9 -8 12 -26 8
-23 -4 -25 -2 -22 24 3 25 7 29 31 26 18 -2 26 1 22 7 -8 15 -48 14 -63 -1z"/>
<path d="M1763 205 c0 -27 2 -38 4 -22 2 15 2 37 0 50 -2 12 -4 0 -4 -28z"/>
<path d="M1811 228 c-19 -52 -22 -68 -12 -68 6 0 11 5 11 10 0 14 38 12 43 -2
2 -7 8 -10 12 -6 9 9 -19 81 -34 86 -6 2 -15 -7 -20 -20z m24 -17 c3 -5 1 -12
-5 -16 -5 -3 -10 1 -10 9 0 18 6 21 15 7z"/>
<path d="M1890 206 c0 -45 0 -46 33 -45 23 1 26 3 10 6 -19 4 -23 11 -23 38 0
19 -4 37 -10 40 -6 4 -10 -12 -10 -39z"/>
</g>
</svg>
