<?xml version="1.0" standalone="no"?>
<!DOCTYPE svg PUBLIC "-//W3C//DTD SVG 20010904//EN"
 "http://www.w3.org/TR/2001/REC-SVG-20010904/DTD/svg10.dtd">
<svg version="1.0" xmlns="http://www.w3.org/2000/svg"
 width="296.000000pt" height="215.000000pt" viewBox="0 0 296.000000 215.000000"
 preserveAspectRatio="xMidYMid meet">

<g transform="translate(0.000000,215.000000) scale(0.100000,-0.100000)"
fill="#000000" stroke="none">
<path d="M1737 1843 c-14 -13 -6 -20 18 -15 14 2 25 8 25 13 0 10 -34 12 -43
2z"/>
<path d="M1830 1824 c0 -4 7 -12 17 -19 22 -16 8 -38 -16 -25 -38 20 -102 28
-134 17 -75 -25 -147 -100 -147 -152 0 -30 22 -10 39 34 9 24 23 47 31 52 8 4
31 15 50 23 19 9 42 22 51 28 10 6 24 8 35 3 11 -4 29 -8 41 -9 12 -1 34 -14
49 -29 14 -15 30 -27 34 -27 15 0 50 -81 50 -116 0 -47 -33 -122 -56 -131 -21
-8 -179 14 -245 33 -43 13 -49 18 -55 49 -7 39 -23 46 -31 15 -4 -14 -11 -19
-23 -15 -10 3 -29 0 -44 -6 -20 -10 -45 -9 -109 0 -77 12 -92 11 -222 -14 -77
-15 -150 -29 -162 -32 -21 -5 -23 -2 -23 41 0 57 -2 58 -179 54 l-134 -3 -1
-75 -1 -75 -97 -15 c-53 -8 -100 -18 -104 -22 -3 -4 -3 -23 0 -43 l7 -35 74 0
75 0 0 -201 c0 -199 0 -201 -25 -230 -29 -35 -39 -82 -33 -150 9 -90 65 -141
162 -147 83 -5 129 16 157 70 11 22 19 41 17 42 -6 5 -71 26 -79 26 -5 0 -15
-13 -23 -29 -17 -31 -50 -42 -87 -29 -34 13 -39 25 -39 100 0 60 3 69 26 87
36 28 68 26 93 -5 17 -22 25 -24 58 -18 53 9 55 11 34 45 -29 48 -72 69 -141
69 -41 0 -60 4 -61 13 0 6 0 89 1 182 1 94 -2 178 -6 188 -5 14 -19 17 -80 17
-57 0 -74 3 -74 14 0 10 22 18 73 26 126 20 121 17 127 96 l5 69 95 0 95 0 3
-53 c2 -34 8 -55 17 -58 8 -3 91 10 185 30 186 39 213 42 290 25 48 -10 52
-13 47 -36 -2 -14 3 -33 13 -45 23 -29 64 -18 85 23 14 25 21 29 43 25 15 -3
128 -24 252 -47 124 -22 227 -42 229 -45 2 -2 -19 -4 -47 -4 -87 0 -82 14 -82
-216 l0 -204 -65 0 c-103 0 -145 -30 -145 -104 0 -44 26 -70 94 -91 28 -9 63
-21 79 -27 43 -17 33 -65 -17 -74 -21 -4 -34 2 -56 26 -22 24 -36 30 -69 30
-46 0 -51 -11 -26 -60 21 -42 63 -60 135 -60 105 0 160 42 160 122 0 51 -35
81 -124 107 -95 28 -113 56 -49 75 17 5 29 0 48 -18 20 -20 36 -26 71 -26 42
0 45 1 38 23 -3 12 -9 27 -13 34 -3 6 -5 106 -3 222 l3 211 63 0 c55 0 64 3
69 20 7 29 -13 47 -63 54 -88 12 -150 29 -150 41 0 6 6 20 14 30 12 16 16 17
30 6 17 -14 66 -8 66 9 0 6 7 10 15 10 19 0 48 56 41 78 -3 10 -19 26 -36 35
-28 17 -31 17 -56 1 -22 -15 -27 -15 -35 -3 -5 8 -9 19 -9 25 0 7 -16 35 -35
63 -19 28 -35 57 -35 65 0 25 -12 46 -26 46 -8 0 -14 -3 -14 -6z"/>
<path d="M1700 1730 c0 -19 11 -26 23 -14 8 8 -3 34 -14 34 -5 0 -9 -9 -9 -20z"/>
<path d="M1750 1699 c0 -14 5 -19 17 -17 26 5 29 38 4 38 -15 0 -21 -6 -21
-21z"/>
<path d="M1670 1618 c0 -22 26 -58 42 -58 3 0 8 9 11 20 3 14 12 19 27 18 13
-2 25 2 27 8 2 7 -11 14 -34 16 -21 3 -46 8 -55 12 -14 7 -18 3 -18 -16z"/>
<path d="M1135 1340 c-9 -15 4 -30 26 -30 12 0 19 7 19 20 0 21 -33 29 -45 10z"/>
<path d="M1654 1325 c-4 -9 -2 -21 4 -27 16 -16 47 -5 47 17 0 26 -42 34 -51
10z"/>
<path d="M1384 1315 c-4 -9 -2 -21 4 -27 15 -15 44 -1 40 19 -4 23 -36 29 -44
8z"/>
<path d="M844 1279 c-3 -6 -2 -15 3 -20 14 -14 43 0 36 17 -6 17 -29 19 -39 3z"/>
<path d="M1125 1270 c-4 -7 -16 -10 -26 -7 -28 8 -23 -8 11 -35 l31 -24 -16
-43 c-17 -50 -19 -81 -5 -81 6 0 10 -16 10 -35 0 -31 3 -35 25 -35 22 0 25 4
25 35 0 24 5 35 15 35 19 0 19 5 -1 64 -13 39 -14 52 -4 71 19 36 9 60 -27 63
-17 2 -34 -2 -38 -8z"/>
<path d="M1700 1243 c0 -26 -8 -45 -26 -64 -22 -22 -23 -27 -9 -33 9 -3 14 -2
11 3 -3 5 3 19 13 32 l19 24 12 -27 c11 -23 10 -31 -9 -61 -11 -19 -19 -36
-16 -39 3 -2 1 -19 -4 -36 -8 -25 -7 -32 5 -32 10 0 14 12 14 38 0 39 22 83
36 70 4 -4 9 -30 12 -58 3 -31 9 -50 17 -50 7 0 11 8 9 18 -31 151 -63 252
-79 252 -3 0 -5 -17 -5 -37z"/>
<path d="M1356 1244 c-3 -9 -6 -36 -6 -60 0 -32 4 -44 14 -44 17 0 28 -29 26
-68 -4 -49 0 -58 20 -58 11 0 20 5 21 11 1 5 2 32 4 60 2 27 8 51 14 53 6 2
11 30 11 63 l0 59 -49 0 c-35 0 -51 -4 -55 -16z"/>
<path d="M846 1224 c-10 -27 -7 -89 6 -102 7 -7 33 -12 59 -12 37 0 50 -5 61
-22 9 -13 17 -18 21 -11 13 21 -32 62 -71 65 -41 3 -46 21 -7 26 33 4 33 22 0
22 -18 0 -28 7 -35 25 -11 29 -25 32 -34 9z"/>
<path d="M1036 1211 c-3 -5 -3 -16 0 -25 4 -11 1 -16 -10 -16 -12 0 -16 -10
-16 -40 0 -22 5 -40 10 -40 6 0 10 -18 10 -40 0 -33 3 -40 20 -40 17 0 20 7
20 39 0 22 5 43 10 46 18 11 11 64 -10 75 -10 6 -17 17 -14 24 6 16 -12 31
-20 17z"/>
<path d="M796 1158 c-25 -35 -21 -94 9 -123 33 -34 102 -35 133 -2 33 35 26
50 -7 16 -18 -17 -40 -29 -56 -29 -30 0 -85 49 -85 75 0 9 7 30 16 46 19 37
12 49 -10 17z"/>
<path d="M2162 978 c-9 -9 -12 -73 -12 -250 l0 -238 25 -6 c14 -3 36 -3 50 0
l25 6 -2 248 -3 247 -35 3 c-19 2 -41 -3 -48 -10z"/>
<path d="M2305 969 c-4 -5 -2 -22 3 -37 6 -15 13 -40 17 -57 5 -26 31 -113 92
-315 22 -72 29 -80 72 -80 60 0 49 -21 136 265 25 83 50 164 56 181 14 48 12
54 -25 54 -41 0 -50 -11 -65 -75 -17 -78 -39 -152 -49 -172 -5 -10 -13 -36
-16 -58 -4 -22 -13 -50 -20 -63 -12 -22 -13 -20 -31 40 -10 35 -28 95 -40 133
-12 39 -28 95 -35 125 -7 30 -18 58 -24 62 -17 11 -64 9 -71 -3z"/>
<path d="M945 948 c-3 -7 -4 -87 -2 -178 l2 -165 53 -3 52 -3 0 75 c0 42 4 76
9 76 27 0 44 -19 77 -81 l36 -69 113 0 113 0 11 30 10 31 73 -3 c40 -2 71 -5
69 -8 -2 -3 1 -15 8 -27 10 -19 20 -23 62 -23 45 0 50 2 44 18 -4 9 -25 62
-46 117 -21 55 -48 127 -61 160 l-24 60 -56 3 c-63 3 -50 20 -107 -138 -17
-47 -36 -94 -41 -105 -5 -11 -15 -38 -22 -59 -17 -50 -32 -55 -49 -15 -7 18
-28 53 -47 77 -33 43 -33 44 -13 58 40 28 51 46 51 80 0 84 -38 104 -195 104
-83 0 -117 -3 -120 -12z m203 -76 c16 -21 15 -27 -4 -46 -9 -9 -32 -16 -55
-16 -39 0 -39 0 -39 39 0 22 5 41 12 43 22 8 73 -4 86 -20z m364 -71 c9 -28
13 -52 10 -55 -9 -10 -72 -6 -72 4 0 27 26 100 35 100 6 0 18 -22 27 -49z"/>
<path d="M512 538 c-7 -7 -12 -25 -12 -40 0 -21 6 -29 24 -34 26 -6 46 1 46
17 0 6 -7 6 -19 0 -23 -13 -45 8 -35 33 5 13 14 16 30 12 27 -7 33 8 8 18 -22
8 -28 8 -42 -6z"/>
<path d="M597 543 c-4 -3 -7 -24 -7 -45 0 -37 1 -38 33 -37 23 1 26 3 10 6
-13 2 -23 11 -23 18 0 7 10 16 23 18 l22 4 -22 2 c-28 1 -31 21 -3 21 11 0 20
5 20 10 0 11 -43 14 -53 3z"/>
<path d="M678 523 c-2 -17 -1 -39 3 -49 7 -17 8 -17 8 4 1 12 4 22 7 22 3 0
14 -10 24 -22 l18 -23 6 25 c7 28 4 56 -7 66 -4 4 -7 -6 -7 -22 l0 -29 -24 29
-23 30 -5 -31z"/>
<path d="M772 537 c9 -7 18 -29 21 -48 l4 -34 1 38 c1 20 7 37 12 37 6 0 10 5
10 10 0 6 -15 10 -32 10 -29 -1 -31 -2 -16 -13z"/>
<path d="M847 544 c-11 -11 -8 -84 3 -84 6 0 10 7 10 15 0 8 4 15 9 15 5 0 14
-7 21 -15 15 -18 34 -20 23 -3 -4 7 -7 26 -8 43 0 25 -5 31 -25 33 -14 2 -29
0 -33 -4z m43 -24 c0 -5 -7 -10 -15 -10 -8 0 -15 5 -15 10 0 6 7 10 15 10 8 0
15 -4 15 -10z"/>
<path d="M942 538 c-16 -16 -15 -53 2 -68 21 -17 58 -8 67 16 15 43 -38 83
-69 52z m55 -24 c7 -19 -20 -49 -36 -40 -6 4 -11 18 -11 32 0 17 5 24 20 24
11 0 23 -7 27 -16z"/>
<path d="M1070 505 c0 -40 2 -45 23 -45 29 0 47 18 47 45 0 27 -18 45 -47 45
-21 0 -23 -5 -23 -45z m48 -2 c-2 -17 -9 -28 -18 -28 -9 0 -16 11 -18 28 -3
22 1 27 18 27 17 0 21 -5 18 -27z"/>
<path d="M1160 505 c0 -44 1 -45 33 -44 27 1 29 2 9 7 -13 4 -23 12 -23 17 0
6 10 13 23 17 23 6 23 6 1 7 -28 1 -41 21 -14 21 12 0 21 5 21 10 0 6 -11 10
-25 10 -23 0 -25 -4 -25 -45z"/>
<path d="M1277 543 c-11 -10 -8 -71 3 -78 6 -3 10 1 10 9 0 20 26 21 34 1 3
-8 10 -15 16 -15 7 0 8 6 1 18 -6 11 -6 24 -1 32 5 9 5 19 -2 27 -11 14 -50
18 -61 6z m48 -23 c-3 -5 -13 -10 -21 -10 -8 0 -14 5 -14 10 0 6 9 10 21 10
11 0 17 -4 14 -10z"/>
<path d="M1370 505 c0 -44 1 -45 33 -44 27 1 29 2 9 7 -13 4 -23 12 -23 17 0
6 10 13 23 17 23 6 23 6 1 7 -28 1 -41 21 -14 21 12 0 21 5 21 10 0 6 -11 10
-25 10 -23 0 -25 -4 -25 -45z"/>
<path d="M1451 503 c0 -33 3 -42 8 -29 4 11 16 23 27 27 17 7 17 8 2 8 -22 1
-24 21 -3 21 8 0 15 5 15 10 0 6 -11 10 -25 10 -23 0 -25 -3 -24 -47z"/>
<path d="M1524 536 c-3 -8 -4 -27 -2 -43 3 -24 8 -28 38 -30 27 -1 30 0 12 5
-13 4 -23 12 -23 17 0 6 10 13 23 17 23 6 23 6 1 7 -28 1 -41 21 -14 21 11 0
23 5 26 10 4 6 -7 10 -25 10 -17 0 -33 -6 -36 -14z"/>
<path d="M1610 503 c1 -45 2 -47 16 -28 14 19 16 19 28 3 19 -26 22 -23 22 25
-1 40 -3 42 -33 45 l-33 3 0 -48z m50 17 c0 -5 -7 -10 -15 -10 -8 0 -15 5 -15
10 0 6 7 10 15 10 8 0 15 -4 15 -10z"/>
<path d="M1700 505 c0 -44 0 -45 33 -44 23 1 26 3 10 6 -13 2 -23 11 -23 18 0
7 10 16 23 18 l22 4 -22 2 c-25 1 -32 21 -9 21 8 0 18 5 21 10 4 6 -7 10 -24
10 -30 0 -31 -1 -31 -45z"/>
<path d="M1784 536 c-3 -8 -4 -29 -2 -48 4 -33 4 -33 15 -8 l10 24 12 -22 c19
-36 31 -25 30 26 0 26 -3 40 -6 32 -2 -8 -7 -22 -10 -30 -3 -11 -8 -8 -19 13
-17 31 -22 33 -30 13z"/>
<path d="M1882 538 c-16 -16 -15 -53 3 -68 18 -15 47 -10 53 10 4 13 3 13 -11
2 -21 -18 -37 -7 -37 25 0 22 4 25 25 20 16 -3 24 0 22 7 -5 16 -40 19 -55 4z"/>
<path d="M2026 543 c-14 -14 -36 -76 -30 -82 4 -3 9 0 11 7 6 15 35 16 51 0
17 -17 15 1 -3 46 -16 39 -18 40 -29 29z m14 -43 c0 -5 -4 -10 -10 -10 -5 0
-10 5 -10 10 0 6 5 10 10 10 6 0 10 -4 10 -10z"/>
<path d="M1960 500 c0 -22 5 -40 10 -40 6 0 10 18 10 40 0 22 -4 40 -10 40 -5
0 -10 -18 -10 -40z"/>
<path d="M1205 430 c-3 -5 -1 -10 4 -10 6 0 11 5 11 10 0 6 -2 10 -4 10 -3 0
-8 -4 -11 -10z"/>
<path d="M510 365 c0 -43 1 -45 30 -45 23 0 33 6 39 23 15 39 -5 67 -46 67
-21 0 -23 -5 -23 -45z m55 0 c0 -11 -8 -21 -17 -23 -14 -3 -18 3 -18 23 0 20
4 26 18 23 9 -2 17 -12 17 -23z"/>
<path d="M614 375 c-18 -44 -19 -64 -2 -47 16 16 45 15 51 0 2 -7 7 -10 11 -6
7 6 -30 88 -40 88 -3 0 -12 -16 -20 -35z m31 -4 c3 -5 1 -12 -5 -16 -5 -3 -10
1 -10 9 0 18 6 21 15 7z"/>
<path d="M736 369 c-9 -23 -14 -44 -10 -48 4 -3 9 0 11 7 6 15 35 16 51 0 9
-9 12 -9 12 0 0 21 -28 82 -38 82 -6 0 -17 -19 -26 -41z m34 1 c0 -5 -5 -10
-11 -10 -5 0 -7 5 -4 10 3 6 8 10 11 10 2 0 4 -4 4 -10z"/>
<path d="M827 403 c-14 -14 -6 -34 18 -43 32 -12 32 -24 0 -17 -16 3 -24 0
-22 -7 2 -6 15 -11 28 -11 36 0 39 40 4 49 -14 4 -23 11 -20 15 3 5 15 7 27 3
14 -3 19 -2 14 6 -8 13 -39 16 -49 5z"/>
<path d="M907 403 c-14 -13 -6 -30 19 -41 14 -7 22 -17 19 -22 -4 -7 -13 -6
-27 1 -16 9 -19 8 -16 -3 3 -7 18 -13 34 -13 38 0 45 30 10 46 -27 13 -26 32
1 22 11 -4 14 -3 9 5 -8 13 -39 16 -49 5z"/>
<path d="M987 403 c-11 -10 -8 -71 3 -78 6 -4 10 12 10 39 0 47 -2 51 -13 39z"/>
<path d="M1027 403 c-15 -14 -6 -34 19 -43 14 -6 22 -14 19 -20 -4 -7 -13 -6
-27 1 -16 9 -19 8 -16 -3 6 -18 42 -22 56 -6 13 16 5 30 -23 46 -19 11 -19 11
3 12 13 0 20 4 17 10 -7 11 -38 13 -48 3z"/>
<path d="M1108 398 c7 -7 12 -24 12 -39 0 -15 5 -31 10 -34 6 -4 10 8 10 29 0
20 5 36 10 36 6 0 10 5 10 10 0 6 -14 10 -32 10 -25 0 -29 -3 -20 -12z"/>
<path d="M1180 365 c0 -44 1 -45 33 -44 30 0 31 1 10 11 -13 6 -23 15 -23 20
0 4 10 8 23 9 21 0 21 1 -3 10 l-25 10 25 14 25 14 -32 1 c-32 0 -33 -1 -33
-45z"/>
<path d="M1267 404 c-11 -11 -9 -72 3 -79 6 -4 10 6 10 22 l0 28 25 -30 c13
-16 25 -28 26 -25 6 24 5 81 -2 86 -5 3 -9 -7 -9 -23 l0 -28 -23 28 c-12 16
-26 25 -30 21z"/>
<path d="M1360 390 c-6 -12 -8 -29 -5 -40 7 -20 39 -35 55 -25 17 11 11 22
-12 21 -17 -1 -24 5 -26 22 -3 18 1 22 23 22 15 0 24 4 20 10 -11 17 -44 11
-55 -10z"/>
<path d="M1447 403 c-11 -10 -8 -73 3 -73 6 0 10 18 10 40 0 41 -2 45 -13 33z"/>
<path d="M1495 380 c-8 -16 -15 -37 -14 -47 0 -10 3 -13 6 -5 6 15 35 16 51 0
9 -9 12 -8 12 5 0 18 -27 77 -35 77 -2 0 -11 -13 -20 -30z"/>
<path d="M1612 398 c-14 -14 2 -38 24 -38 15 0 19 -12 7 -23 -3 -4 -12 -2 -20
5 -7 6 -17 8 -20 4 -11 -10 19 -27 42 -24 30 4 31 36 1 49 -30 14 -26 30 6 21
14 -3 19 -2 14 6 -9 15 -39 15 -54 0z"/>
<path d="M1703 404 c-7 -3 -13 -21 -13 -40 0 -28 4 -35 26 -40 37 -10 61 17
48 53 -9 27 -34 38 -61 27z m47 -40 c0 -17 -6 -24 -20 -24 -25 0 -36 25 -20
45 16 20 40 7 40 -21z"/>
<path d="M1790 395 c-20 -25 -1 -70 29 -70 14 0 26 5 28 11 2 7 -6 10 -22 7
-22 -5 -25 -2 -25 22 0 24 3 27 25 22 16 -3 24 0 22 7 -6 18 -43 18 -57 1z"/>
<path d="M1877 403 c-11 -10 -8 -71 3 -78 6 -4 10 12 10 39 0 47 -2 51 -13 39z"/>
<path d="M1925 380 c-19 -36 -21 -70 -3 -52 16 16 45 15 51 0 2 -7 7 -10 11
-6 7 6 -29 88 -39 88 -2 0 -11 -13 -20 -30z m25 -16 c0 -8 -5 -12 -10 -9 -6 4
-8 11 -5 16 9 14 15 11 15 -7z"/>
<path d="M2000 365 c0 -44 1 -45 33 -44 30 0 31 1 10 11 -17 8 -23 20 -23 45
0 18 -4 33 -10 33 -5 0 -10 -20 -10 -45z"/>
</g>
</svg>
