<?xml version="1.0" standalone="no"?>
<!DOCTYPE svg PUBLIC "-//W3C//DTD SVG 20010904//EN"
 "http://www.w3.org/TR/2001/REC-SVG-20010904/DTD/svg10.dtd">
<svg version="1.0" xmlns="http://www.w3.org/2000/svg"
 width="241.000000pt" height="214.000000pt" viewBox="0 0 241.000000 214.000000"
 preserveAspectRatio="xMidYMid meet">

<g transform="translate(0.000000,214.000000) scale(0.100000,-0.100000)"
fill="#000000" stroke="none">
<path d="M1572 1888 c-7 -7 -12 -18 -12 -25 0 -7 -17 -17 -38 -22 -70 -19
-147 -94 -154 -151 -5 -44 25 -29 39 19 15 54 39 81 69 81 13 0 26 5 29 10 4
6 11 8 16 5 5 -4 9 -2 9 3 0 5 11 14 24 21 20 11 28 10 49 -3 19 -13 26 -14
29 -4 3 8 18 -1 44 -25 21 -20 42 -37 46 -37 18 0 58 -89 58 -130 0 -49 -33
-125 -60 -140 -13 -7 -60 -2 -157 15 -147 27 -172 41 -173 93 0 29 -22 24 -30
-6 -4 -16 -9 -19 -19 -12 -9 5 -29 3 -52 -7 -31 -12 -48 -13 -89 -4 -81 17
-154 13 -315 -18 -82 -16 -153 -27 -157 -25 -4 3 -8 25 -8 48 0 53 6 51 -187
55 l-143 3 0 -85 0 -84 -67 -11 c-38 -7 -87 -15 -111 -18 -42 -7 -42 -7 -42
-50 l0 -43 82 -3 83 -3 3 -220 2 -219 -24 -22 c-46 -43 -58 -172 -23 -241 43
-82 173 -119 264 -76 36 17 88 83 81 104 -2 7 -23 18 -46 24 -41 13 -42 13
-62 -20 -23 -37 -56 -50 -94 -35 -35 13 -46 39 -46 108 0 78 24 112 80 112 31
0 43 -5 56 -25 16 -25 23 -26 87 -8 25 7 21 28 -14 68 -36 40 -93 59 -156 52
l-43 -5 -2 217 -3 216 -82 3 c-63 2 -83 6 -83 17 0 14 14 18 125 35 38 6 75
16 82 22 8 7 13 35 13 79 l0 69 105 0 c102 0 105 -1 111 -24 3 -13 5 -30 4
-37 -6 -43 0 -59 25 -59 14 0 108 18 210 40 166 35 190 38 242 29 90 -16 93
-18 93 -48 0 -31 29 -71 52 -71 27 0 70 41 65 61 -3 11 -2 19 2 19 3 0 130
-22 281 -50 151 -27 279 -51 285 -52 5 -1 -24 -4 -65 -7 l-75 -6 -3 -226 -2
-227 -45 5 c-65 8 -111 -4 -150 -39 -29 -24 -35 -37 -35 -68 0 -57 30 -85 125
-118 76 -26 80 -29 83 -59 3 -28 -1 -33 -22 -39 -40 -10 -69 2 -88 36 -16 27
-22 31 -58 28 -54 -3 -64 -16 -42 -58 28 -55 63 -74 146 -78 59 -3 81 0 113
16 54 28 79 79 67 136 -11 51 -47 77 -145 102 -74 19 -90 33 -69 59 24 29 100
9 100 -26 0 -5 17 -8 38 -5 20 3 45 5 54 5 17 1 17 4 3 39 -13 30 -15 80 -13
262 l3 225 73 3 72 3 0 33 0 33 -77 12 c-98 16 -163 32 -163 40 0 3 9 17 20
31 15 20 21 23 31 13 7 -7 23 -13 35 -13 24 0 48 23 37 34 -4 4 0 4 9 1 29
-11 69 53 55 89 -3 8 -21 22 -38 32 -25 13 -37 14 -51 5 -29 -18 -47 -13 -54
15 -4 14 -22 46 -41 71 -19 25 -37 59 -39 76 -5 39 -20 55 -36 39 -9 -9 -7
-13 5 -18 9 -3 17 -13 17 -21 0 -10 -6 -13 -17 -8 -10 3 -39 11 -66 17 -48 12
-58 30 -19 36 12 2 20 8 17 13 -8 13 -29 11 -43 -3z m-282 -378 c0 -5 -4 -10
-10 -10 -5 0 -10 5 -10 10 0 6 5 10 10 10 6 0 10 -4 10 -10z"/>
<path d="M1530 1770 c0 -11 7 -20 15 -20 17 0 18 2 9 24 -9 23 -24 20 -24 -4z"/>
<path d="M1584 1745 c-7 -18 3 -35 21 -35 12 0 25 21 25 41 0 15 -40 10 -46
-6z"/>
<path d="M1484 1698 c9 -15 16 -40 16 -56 0 -30 16 -52 37 -52 7 0 13 6 13 14
0 21 18 30 34 17 9 -7 16 -7 24 1 20 20 14 28 -19 28 -38 0 -67 14 -98 48
l-24 27 17 -27z"/>
<path d="M914 1345 c-4 -9 -2 -21 4 -27 16 -16 47 -5 47 17 0 26 -42 34 -51
10z"/>
<path d="M1484 1336 c-10 -26 4 -48 28 -44 17 2 23 10 23 28 0 18 -6 26 -23
28 -13 2 -25 -3 -28 -12z"/>
<path d="M1191 1326 c-15 -18 -3 -46 20 -46 25 0 35 26 19 45 -15 19 -24 19
-39 1z"/>
<path d="M604 1285 c-6 -15 2 -35 14 -35 4 0 13 4 21 9 12 8 12 12 2 25 -17
20 -30 20 -37 1z"/>
<path d="M900 1269 c0 -6 -8 -9 -20 -6 -30 8 -25 -14 10 -43 l30 -25 -19 -62
c-16 -52 -17 -63 -5 -63 15 0 17 -7 18 -55 1 -25 5 -29 26 -29 21 0 25 5 26
29 3 52 4 55 19 55 8 0 15 2 15 4 0 2 -7 23 -15 46 -18 50 -19 90 -4 90 6 0 9
14 7 33 -3 30 -6 32 -45 35 -28 2 -43 -1 -43 -9z"/>
<path d="M1526 1242 c5 -35 2 -41 -36 -80 -23 -23 -40 -47 -37 -54 3 -8 6 -5
6 6 1 14 7 17 27 13 19 -3 24 -1 20 10 -7 17 14 53 31 53 23 0 26 -58 4 -89
-12 -16 -21 -45 -21 -64 0 -20 -6 -37 -12 -40 -7 -2 -10 -8 -6 -12 17 -18 38
6 38 42 0 39 25 88 39 78 15 -9 22 -108 8 -117 -7 -5 -1 -8 16 -8 22 0 27 4
23 18 -2 9 -10 44 -16 77 -16 89 -60 205 -76 205 -11 0 -13 -9 -8 -38z"/>
<path d="M1156 1244 c-10 -25 -7 -112 4 -119 6 -3 10 -1 10 6 0 7 3 9 7 5 4
-4 10 -41 14 -84 5 -58 8 -71 14 -53 l8 25 9 -24 c12 -32 21 -18 23 33 4 112
7 133 15 107 7 -24 7 -24 14 10 4 19 5 49 2 65 -2 17 -5 33 -5 38 -1 4 -25 7
-55 7 -40 0 -55 -4 -60 -16z"/>
<path d="M612 1228 c-12 -12 -17 -85 -6 -112 5 -12 20 -16 57 -16 38 0 56 -5
74 -22 31 -29 36 -20 11 20 -17 27 -26 32 -59 32 -28 0 -39 4 -39 15 0 8 9 16
20 16 33 2 38 4 46 12 4 4 -9 7 -29 7 -24 0 -37 5 -37 13 0 7 -6 21 -13 30
-10 14 -15 15 -25 5z"/>
<path d="M800 1195 c0 -8 9 -15 20 -15 11 0 20 7 20 15 0 8 -9 15 -20 15 -11
0 -20 -7 -20 -15z"/>
<path d="M564 1162 c-18 -12 -34 -49 -34 -81 0 -37 41 -87 79 -96 36 -8 95 16
110 43 21 40 11 43 -23 8 -35 -38 -62 -44 -99 -24 -48 25 -62 82 -31 126 17
24 16 36 -2 24z"/>
<path d="M793 1163 c-15 -6 -18 -93 -4 -93 6 0 11 -19 13 -42 2 -30 8 -42 21
-44 14 -2 17 6 17 42 0 24 4 44 9 44 13 0 20 51 10 77 -8 22 -35 29 -66 16z"/>
<path d="M1441 1074 c0 -11 3 -14 6 -6 3 7 2 16 -1 19 -3 4 -6 -2 -5 -13z"/>
<path d="M1421 994 c0 -11 3 -14 6 -6 3 7 2 16 -1 19 -3 4 -6 -2 -5 -13z"/>
<path d="M1981 931 c-12 -8 -13 -16 -3 -48 13 -41 44 -145 99 -338 19 -66 40
-126 46 -133 6 -8 28 -12 61 -10 l50 3 22 60 c12 33 30 89 40 125 9 36 29 103
44 150 41 125 53 177 45 189 -9 15 -60 14 -74 -2 -6 -8 -22 -56 -35 -108 -29
-110 -83 -289 -89 -296 -5 -5 -47 101 -47 118 0 6 -12 49 -26 96 -14 46 -27
98 -29 114 -7 54 -28 84 -60 87 -17 1 -36 -2 -44 -7z"/>
<path d="M712 738 l3 -193 49 -3 c33 -3 51 1 57 10 5 7 9 46 9 86 0 39 3 72 6
72 22 0 49 -30 79 -89 23 -47 41 -70 57 -75 26 -6 108 -8 108 -2 0 19 -55 115
-81 142 l-32 33 25 10 c60 23 79 115 34 168 -24 28 -24 28 -170 31 l-146 3 2
-193z m209 112 c24 -13 25 -55 2 -65 -10 -4 -34 -8 -53 -8 -34 0 -35 1 -38 41
l-3 42 36 0 c20 0 45 -5 56 -10z"/>
<path d="M1225 900 c-7 -14 -32 -79 -55 -145 -23 -66 -49 -132 -56 -147 -8
-15 -14 -36 -14 -48 0 -19 5 -21 51 -18 51 3 60 9 73 51 4 14 17 17 76 17 l70
0 14 -35 c14 -33 17 -35 65 -35 64 0 65 5 10 142 -23 57 -45 114 -49 128 -4
14 -16 44 -26 67 l-18 41 -64 4 c-60 3 -65 1 -77 -22z m98 -135 c9 -31 17 -60
17 -65 0 -6 -18 -10 -40 -10 -24 0 -40 5 -40 12 0 19 33 118 40 118 3 0 14
-25 23 -55z"/>
<path d="M1558 503 c7 -3 16 -2 19 1 4 3 -2 6 -13 5 -11 0 -14 -3 -6 -6z"/>
<path d="M248 479 c-21 -12 -24 -59 -6 -77 16 -16 43 -15 58 3 11 13 8 14 -20
9 -30 -7 -31 -6 -28 22 3 25 7 29 33 27 28 -2 29 -1 11 12 -23 17 -25 18 -48
4z"/>
<path d="M337 483 c-4 -3 -7 -26 -7 -50 l0 -43 38 1 c31 1 33 2 13 8 -31 8
-40 31 -12 31 12 0 21 5 21 10 0 6 -9 10 -20 10 -11 0 -20 5 -20 10 0 6 12 10
26 10 14 0 23 4 19 10 -7 11 -48 14 -58 3z"/>
<path d="M480 458 l-1 -33 -20 28 c-29 38 -39 34 -39 -19 0 -27 4 -43 10 -39
6 3 10 16 10 27 0 19 2 19 21 -6 11 -14 25 -24 30 -21 12 8 12 82 -1 90 -6 4
-10 -7 -10 -27z"/>
<path d="M520 480 c0 -5 5 -10 10 -10 6 0 10 -18 10 -41 0 -24 4 -38 10 -34 6
3 10 22 10 41 0 19 5 34 10 34 25 0 7 16 -20 18 -16 1 -30 -2 -30 -8z"/>
<path d="M604 476 c-3 -8 -4 -31 -1 -52 3 -34 5 -36 12 -16 4 12 11 22 15 22
4 0 14 -10 23 -22 8 -13 18 -20 22 -16 4 4 2 14 -5 23 -10 12 -10 18 0 30 16
19 6 30 -33 39 -19 5 -29 2 -33 -8z m56 -16 c0 -5 -9 -10 -20 -10 -11 0 -20 5
-20 10 0 6 9 10 20 10 11 0 20 -4 20 -10z"/>
<path d="M718 479 c-23 -13 -25 -74 -2 -83 29 -11 53 -6 64 13 14 28 13 38
-10 61 -23 23 -28 24 -52 9z m47 -30 c5 -14 1 -27 -9 -37 -15 -15 -17 -15 -32
0 -20 20 -10 58 16 58 10 0 22 -10 25 -21z"/>
<path d="M846 482 c-3 -3 -6 -25 -6 -49 0 -40 2 -43 28 -43 15 0 33 5 40 12
15 15 16 65 0 74 -15 9 -55 14 -62 6z m52 -41 c4 -23 -15 -44 -30 -35 -4 3 -8
19 -8 35 0 24 4 30 18 27 9 -2 19 -14 20 -27z"/>
<path d="M944 481 c-2 -2 -4 -24 -4 -48 l0 -43 38 1 c30 2 32 3 10 6 -32 5
-38 33 -8 33 11 0 20 5 20 10 0 6 -9 10 -20 10 -11 0 -20 5 -20 10 0 6 12 10
26 10 14 0 22 4 19 10 -6 9 -51 10 -61 1z"/>
<path d="M1074 476 c-3 -8 -4 -31 -2 -52 4 -36 5 -37 14 -16 l10 23 18 -20
c24 -27 40 -27 26 -1 -7 14 -8 26 0 40 8 15 6 21 -9 30 -27 14 -51 13 -57 -4z
m51 -16 c3 -5 -3 -10 -14 -10 -12 0 -21 5 -21 10 0 6 6 10 14 10 8 0 18 -4 21
-10z"/>
<path d="M1177 483 c-4 -3 -7 -26 -7 -50 l0 -43 38 1 c35 1 36 2 8 8 -34 7
-37 24 -6 29 29 5 25 22 -6 22 -14 0 -23 4 -19 10 3 6 15 10 26 10 11 0 17 5
14 10 -7 11 -38 13 -48 3z"/>
<path d="M1261 438 c0 -42 2 -48 9 -30 5 12 16 22 25 22 8 0 15 5 15 10 0 6
-9 10 -21 10 -11 0 -17 5 -14 10 3 6 15 10 26 10 11 0 17 5 14 10 -3 6 -17 10
-31 10 -22 0 -24 -3 -23 -52z"/>
<path d="M1347 483 c-4 -3 -7 -26 -7 -50 l0 -43 38 1 c37 1 37 1 10 12 -33 13
-37 27 -8 27 11 0 20 5 20 10 0 6 -9 10 -20 10 -11 0 -20 5 -20 10 0 6 12 10
26 10 14 0 23 4 19 10 -7 11 -48 14 -58 3z"/>
<path d="M1437 483 c-11 -10 -8 -93 3 -93 6 0 10 9 10 20 0 26 14 25 33 -2 8
-13 18 -20 22 -16 4 4 2 14 -5 23 -10 12 -10 18 0 30 10 12 10 18 0 30 -13 15
-51 20 -63 8z m53 -23 c0 -5 -9 -10 -20 -10 -11 0 -20 5 -20 10 0 6 9 10 20
10 11 0 20 -4 20 -10z"/>
<path d="M1553 483 c-20 -4 -23 -11 -23 -49 l0 -44 38 1 c30 2 32 3 10 6 -32
5 -38 33 -8 33 11 0 20 5 20 10 0 6 -9 10 -20 10 -11 0 -20 5 -20 10 0 6 9 10
20 10 11 0 20 5 20 10 0 6 -3 9 -7 9 -5 -1 -18 -4 -30 -6z"/>
<path d="M1620 442 c0 -33 4 -51 10 -47 6 3 10 16 10 28 1 21 2 20 18 -5 9
-16 20 -28 23 -28 10 0 16 69 7 83 -5 7 -8 1 -8 -18 l0 -29 -30 34 -29 35 -1
-53z"/>
<path d="M1730 470 c-24 -24 -25 -43 -4 -65 18 -18 55 -17 61 2 3 8 -6 11 -24
10 -24 -2 -28 2 -28 23 0 21 4 25 28 23 29 -2 37 11 11 21 -22 8 -22 8 -44
-14z"/>
<path d="M1810 441 c0 -22 5 -43 10 -46 6 -4 10 12 10 39 0 25 -4 46 -10 46
-5 0 -10 -18 -10 -39z"/>
<path d="M1864 445 c-19 -47 -18 -58 6 -43 16 10 24 10 40 0 24 -15 25 -4 6
43 -8 19 -20 35 -26 35 -6 0 -18 -16 -26 -35z m36 -5 c0 -5 -4 -10 -10 -10 -5
0 -10 5 -10 10 0 6 5 10 10 10 6 0 10 -4 10 -10z"/>
<path d="M995 360 c-3 -5 1 -10 10 -10 9 0 13 5 10 10 -3 6 -8 10 -10 10 -2 0
-7 -4 -10 -10z"/>
<path d="M244 326 c-3 -8 -4 -29 -2 -48 2 -26 8 -34 26 -36 31 -5 52 15 52 49
0 41 -63 70 -76 35z m54 -39 c3 -22 -1 -27 -17 -27 -17 0 -21 6 -21 31 0 24 4
30 18 27 10 -2 18 -14 20 -31z"/>
<path d="M355 306 c-22 -52 -20 -69 5 -54 16 10 24 10 40 0 24 -15 25 -6 5 41
-21 50 -33 54 -50 13z m35 -16 c0 -5 -4 -10 -10 -10 -5 0 -10 5 -10 10 0 6 5
10 10 10 6 0 10 -4 10 -10z"/>
<path d="M489 294 c-12 -25 -17 -49 -13 -52 3 -4 9 -1 11 6 3 6 15 12 28 12
13 0 25 -6 28 -12 2 -7 7 -10 11 -7 7 7 -29 99 -39 99 -3 0 -15 -21 -26 -46z
m31 -4 c0 -5 -5 -10 -11 -10 -5 0 -7 5 -4 10 3 6 8 10 11 10 2 0 4 -4 4 -10z"/>
<path d="M579 324 c-12 -15 -11 -18 4 -28 10 -6 26 -17 35 -24 15 -12 13 -13
-16 -8 -24 4 -32 2 -29 -7 2 -6 17 -12 33 -12 22 0 30 5 32 23 2 12 -1 22 -5
22 -5 0 -18 7 -29 16 -18 15 -18 15 9 9 29 -6 38 9 11 19 -24 9 -30 8 -45 -10z"/>
<path d="M669 324 c-12 -15 -11 -18 4 -28 10 -6 26 -17 35 -24 15 -12 13 -13
-15 -8 -39 6 -45 -11 -7 -20 35 -9 63 18 44 40 -7 9 -18 16 -26 16 -7 0 -16 5
-20 11 -5 9 1 10 20 5 28 -7 37 8 10 18 -24 9 -30 8 -45 -10z"/>
<path d="M757 333 c-11 -10 -8 -81 3 -88 6 -4 10 13 10 44 0 52 -1 56 -13 44z"/>
<path d="M799 324 c-12 -15 -11 -18 4 -28 10 -6 26 -17 35 -24 15 -12 13 -13
-16 -8 -24 4 -32 2 -29 -7 2 -6 17 -12 33 -12 40 0 48 40 10 55 -33 12 -34 24
-1 16 27 -7 35 8 9 18 -24 9 -30 8 -45 -10z"/>
<path d="M880 330 c0 -5 5 -10 10 -10 6 0 10 -15 10 -34 0 -19 5 -38 10 -41 6
-4 10 10 10 34 0 31 4 41 16 41 8 0 12 5 9 10 -3 6 -19 10 -36 10 -16 0 -29
-4 -29 -10z"/>
<path d="M970 290 l0 -50 36 0 c21 0 33 4 29 10 -3 6 -17 10 -31 10 -13 0 -24
5 -24 10 0 6 11 10 25 10 14 0 25 5 25 10 0 6 -11 10 -25 10 -14 0 -25 5 -25
10 0 6 11 10 25 10 14 0 25 5 25 10 0 6 -13 10 -30 10 -29 0 -30 -1 -30 -50z"/>
<path d="M1062 290 c0 -30 3 -43 5 -27 5 34 16 35 31 2 18 -40 32 -29 31 23
-1 26 -4 37 -6 25 -6 -30 -12 -29 -40 5 l-22 27 1 -55z"/>
<path d="M1166 324 c-32 -31 -6 -88 37 -82 33 5 33 27 0 25 -24 -2 -28 2 -28
23 0 21 4 25 28 23 29 -2 37 11 11 21 -24 9 -31 8 -48 -10z"/>
<path d="M1305 304 c-8 -20 -15 -44 -14 -53 0 -10 2 -11 6 -3 6 15 45 16 61 0
17 -17 15 1 -3 45 -21 51 -32 53 -50 11z m35 -14 c0 -5 -4 -10 -10 -10 -5 0
-10 5 -10 10 0 6 5 10 10 10 6 0 10 -4 10 -10z"/>
<path d="M1437 334 c-16 -16 -6 -44 18 -50 38 -9 31 -28 -7 -20 -30 6 -32 5
-16 -10 11 -11 25 -15 43 -10 32 8 31 36 -3 51 -28 12 -29 29 -1 20 15 -5 20
-3 17 6 -5 15 -40 24 -51 13z"/>
<path d="M1525 320 c-34 -38 3 -91 54 -75 26 8 34 45 15 72 -18 28 -45 29 -69
3z m59 -15 c8 -23 -4 -45 -25 -45 -11 0 -22 7 -25 15 -9 23 3 45 25 45 10 0
21 -7 25 -15z"/>
<path d="M1638 329 c-22 -12 -24 -62 -3 -79 8 -7 25 -10 40 -6 36 9 31 27 -6
19 -29 -6 -30 -4 -27 23 3 25 7 29 31 27 24 -2 27 0 17 13 -14 16 -28 17 -52
3z"/>
<path d="M1769 294 c-11 -26 -17 -50 -13 -53 4 -3 9 0 11 7 3 6 15 12 28 12
13 0 25 -6 28 -12 2 -7 8 -10 11 -6 8 7 -28 98 -39 98 -3 0 -15 -21 -26 -46z
m36 -4 c3 -5 1 -10 -4 -10 -6 0 -11 5 -11 10 0 6 2 10 4 10 3 0 8 -4 11 -10z"/>
<path d="M1861 293 c-1 -52 -1 -53 29 -53 17 0 30 5 30 10 0 6 -9 10 -19 10
-15 0 -22 10 -29 43 l-10 42 -1 -52z"/>
<path d="M1250 285 c0 -25 5 -45 10 -45 6 0 10 20 10 45 0 25 -4 45 -10 45 -5
0 -10 -20 -10 -45z"/>
<path d="M1720 284 c0 -27 4 -43 10 -39 6 3 10 24 10 46 0 21 -4 39 -10 39 -5
0 -10 -21 -10 -46z"/>
</g>
</svg>
