<?xml version="1.0" standalone="no"?>
<!DOCTYPE svg PUBLIC "-//W3C//DTD SVG 20010904//EN"
 "http://www.w3.org/TR/2001/REC-SVG-20010904/DTD/svg10.dtd">
<svg version="1.0" xmlns="http://www.w3.org/2000/svg"
 width="287.000000pt" height="297.000000pt" viewBox="0 0 287.000000 297.000000"
 preserveAspectRatio="xMidYMid meet">

<g transform="translate(0.000000,297.000000) scale(0.100000,-0.100000)"
fill="#000000" stroke="none">
<path d="M1535 1696 c-19 -14 -19 -15 8 -25 15 -6 27 -15 27 -21 0 -6 5 -8 10
-5 6 3 23 -3 38 -14 28 -19 28 -19 29 1 1 12 -6 22 -18 25 -10 3 -19 11 -19
18 0 7 -8 15 -17 19 -10 3 -23 8 -28 11 -6 3 -20 -1 -30 -9z"/>
<path d="M1405 1671 c-3 -12 -12 -21 -20 -21 -19 0 -23 -17 -18 -85 6 -87 11
-103 38 -127 30 -26 24 -38 -19 -38 -36 0 -54 -15 -81 -70 l-18 -35 -13 46
c-8 26 -21 52 -30 60 -11 9 -9 1 6 -30 25 -47 23 -100 -5 -131 -19 -21 -84
-39 -118 -33 -44 9 -81 58 -88 116 -6 52 -6 52 -8 10 -1 -33 -5 -43 -18 -43
-15 0 -15 -1 1 -19 28 -31 57 -121 45 -142 -33 -63 -160 -64 -188 -2 -28 61
-7 114 52 128 15 4 30 11 33 17 9 14 -16 38 -41 38 -19 0 -32 -8 -82 -50 -7
-5 -19 -10 -28 -10 -17 0 -19 -13 -5 -40 7 -12 7 -21 0 -25 -13 -8 39 -87 54
-82 6 3 19 -2 28 -10 16 -14 16 -17 1 -39 -8 -13 -20 -24 -26 -24 -6 0 -19 -7
-28 -16 -28 -25 -7 -58 32 -50 27 5 29 3 29 -24 0 -17 5 -30 10 -30 17 0 11
-32 -15 -89 -14 -30 -23 -56 -20 -60 3 -3 27 -8 53 -11 45 -5 47 -6 47 -37 0
-18 5 -33 11 -33 6 0 9 12 6 30 -4 28 -2 30 27 30 28 0 31 -3 31 -30 0 -16 4
-30 9 -30 6 0 9 12 8 28 -2 21 3 27 18 28 11 1 24 2 29 3 4 1 -6 17 -23 36
-30 35 -41 75 -21 75 6 0 10 8 9 18 0 10 -3 12 -6 5 -8 -22 -107 -9 -136 17
-5 4 -5 40 -1 79 6 66 8 71 30 71 28 0 32 -16 7 -23 -14 -4 -12 -5 5 -6 13 -1
22 5 22 14 0 8 7 15 15 15 11 0 15 -11 15 -37 1 -21 9 -55 19 -77 l18 -38 7
36 c8 40 12 43 44 20 20 -14 22 -14 22 0 0 9 -6 16 -14 16 -24 0 -70 45 -62
59 5 7 13 10 20 8 53 -20 56 -19 56 13 0 28 -2 30 -21 19 -28 -15 -43 1 -35
38 5 19 18 35 42 48 33 18 35 18 47 0 11 -14 17 -16 35 -6 22 12 31 41 12 41
-5 0 -10 4 -10 9 0 6 28 0 62 -12 53 -19 66 -29 90 -69 24 -40 27 -51 18 -69
-8 -14 -18 -19 -31 -16 -20 5 -23 -5 -10 -37 7 -19 8 -18 15 5 l8 24 7 -29 c3
-16 11 -31 18 -33 9 -3 10 4 3 28 -7 24 -6 35 2 40 7 5 14 6 16 4 9 -9 12 -98
4 -109 -6 -6 -6 -35 -1 -66 4 -30 8 -81 8 -112 1 -51 3 -57 24 -60 26 -3 37
-46 15 -59 -9 -6 -8 -9 7 -9 18 0 20 5 17 35 -4 30 -1 35 17 35 19 0 21 6 22
58 1 31 5 71 8 87 l7 30 12 -40 c7 -22 12 -61 12 -87 0 -42 3 -48 21 -48 18 0
21 -5 17 -35 -3 -30 -1 -35 16 -35 16 0 17 3 8 12 -18 18 -15 58 3 58 14 0 16
19 15 128 -1 70 -1 159 -1 199 l1 72 33 -11 c17 -6 37 -15 43 -20 7 -5 25 -10
42 -11 l30 -2 -15 -35 c-8 -19 -31 -81 -51 -137 -44 -121 -42 -126 56 -133
l67 -5 -1 -37 c-1 -21 3 -38 7 -38 5 0 9 16 9 35 l0 35 50 0 50 0 0 -35 c0
-19 3 -35 8 -35 4 0 7 15 7 33 0 31 1 32 45 33 73 1 73 1 65 31 -4 16 -11 71
-15 123 -6 76 -5 97 6 103 8 4 14 21 14 36 0 16 7 31 15 35 17 6 19 28 5 54
-5 9 -23 52 -40 94 -27 66 -35 78 -60 83 -16 4 -34 4 -40 0 -16 -10 -12 11 5
25 8 7 15 21 15 32 0 10 8 21 18 25 31 11 50 34 45 54 -3 10 -9 19 -14 19 -5
0 -7 11 -3 24 6 27 -35 76 -64 76 -10 0 -22 4 -28 9 -5 5 -18 11 -29 13 -11 1
-22 6 -25 10 -5 6 -34 8 -109 8 -27 0 -70 -39 -88 -79 -11 -24 -12 -22 -13 29
l-2 55 -8 -50 c-10 -68 -27 -92 -77 -111 -103 -39 -203 25 -203 130 0 28 19
74 20 51 1 -8 21 29 24 45 1 3 5 10 9 16 4 7 0 17 -7 23 -11 10 -16 8 -21 -8z
m498 -201 c15 -12 24 -27 21 -35 -3 -8 4 -28 15 -44 28 -38 26 -62 -4 -91 -18
-17 -40 -25 -79 -28 -48 -4 -56 -1 -87 26 -28 25 -31 32 -20 45 8 11 9 21 3
34 -40 74 81 148 151 93z m-223 -62 c0 -15 6 -33 14 -40 20 -20 48 -78 38 -78
-5 0 -17 9 -27 20 -10 11 -23 20 -29 20 -6 0 -3 -7 7 -14 10 -8 19 -27 20 -42
1 -16 10 -35 19 -42 32 -24 40 -49 28 -92 -14 -53 -51 -74 -97 -55 l-31 13 -6
-39 c-7 -46 -10 -46 -131 -24 -44 8 -81 14 -82 15 -2 0 -3 7 -3 15 0 8 -4 15
-10 15 -5 0 -19 19 -31 41 -22 44 -22 44 24 70 15 9 17 4 18 -48 0 -42 3 -52
9 -38 10 24 12 87 4 109 -5 13 -11 11 -40 -11 -34 -25 -35 -25 -55 -7 -40 37
-41 50 -9 111 40 74 40 75 97 84 71 11 93 3 87 -31 -4 -19 -1 -29 10 -33 25
-10 46 3 46 29 0 34 45 32 82 -3 15 -15 28 -22 28 -15 0 6 -13 21 -28 32 l-29
21 31 32 c33 34 46 30 46 -15z m-160 -49 c0 -5 5 -7 10 -4 6 3 10 1 10 -4 0
-6 -9 -11 -20 -11 -11 0 -20 7 -20 15 0 8 5 15 10 15 6 0 10 -5 10 -11z m225
-109 c3 -5 2 -10 -4 -10 -5 0 -13 5 -16 10 -3 6 -2 10 4 10 5 0 13 -4 16 -10z
m188 -12 c23 -35 -49 -68 -81 -36 -15 15 -16 48 -2 48 6 0 10 -4 10 -8 0 -5 7
-9 15 -9 8 0 15 7 15 14 0 19 30 13 43 -9z m-124 -29 c17 -6 36 -20 42 -31 8
-15 17 -18 38 -13 15 3 43 -1 64 -10 20 -8 47 -15 60 -15 13 0 37 -14 55 -33
46 -48 30 -57 -106 -64 -114 -5 -132 0 -113 35 7 14 6 18 -9 18 -12 0 -16 -4
-10 -11 15 -18 -3 -31 -43 -33 -74 -5 -101 18 -46 37 30 10 31 11 27 71 -1 33
0 60 3 60 3 0 20 -5 38 -11z m-503 -27 c-9 -9 -37 8 -31 18 5 8 11 7 21 -1 8
-6 12 -14 10 -17z m-175 -13 c-36 -22 -45 -21 -35 5 4 10 18 16 38 16 l31 0
-34 -21z m929 -154 c0 -8 -4 -15 -9 -15 -5 0 -11 7 -15 15 -3 9 0 15 9 15 8 0
15 -7 15 -15z m-1160 -10 c0 -20 -49 -40 -63 -26 -15 15 11 41 39 41 15 0 24
-6 24 -15z"/>
<path d="M1850 1436 c0 -29 19 -44 30 -25 9 14 -5 49 -20 49 -6 0 -10 -11 -10
-24z"/>
<path d="M1810 1424 c0 -31 23 -28 28 4 2 15 -2 22 -12 22 -11 0 -16 -9 -16
-26z"/>
<path d="M1896 1344 c-23 -16 -82 -19 -91 -4 -3 6 -12 10 -18 10 -7 -1 -1 -10
12 -20 30 -25 72 -25 102 -1 28 23 23 36 -5 15z"/>
<path d="M1646 1184 c-10 -25 -7 -34 10 -34 10 0 14 6 10 15 -3 8 -1 15 4 15
6 0 10 5 10 10 0 16 -27 11 -34 -6z"/>
<path d="M1721 1175 c0 -11 -8 -32 -17 -45 l-17 -25 22 21 c15 14 21 29 18 45
-3 20 -5 20 -6 4z"/>
<path d="M1892 1224 c-7 -8 -17 -12 -23 -9 -5 4 -9 1 -9 -4 0 -16 36 -13 49 3
16 19 0 28 -17 10z"/>
<path d="M1870 1091 c0 -6 4 -13 10 -16 6 -3 7 1 4 9 -7 18 -14 21 -14 7z"/>
<path d="M1491 1602 c-15 -28 -14 -42 3 -42 18 0 31 39 18 52 -7 7 -14 3 -21
-10z"/>
<path d="M1535 1608 c-8 -20 12 -61 26 -53 13 9 11 28 -5 51 -13 17 -15 17
-21 2z"/>
<path d="M1458 1487 c21 -25 75 -39 106 -28 36 14 33 17 -19 13 -31 -3 -54 1
-73 14 -22 15 -25 15 -14 1z"/>
<path d="M1090 1438 c-42 -22 -60 -58 -29 -58 11 0 22 6 25 14 3 9 16 13 32
12 34 -4 54 3 46 16 -3 5 2 8 12 6 11 -2 19 3 19 11 0 21 -66 20 -105 -1z"/>
<path d="M1160 1363 c0 -25 15 -38 25 -22 4 6 0 18 -9 27 -15 15 -16 15 -16
-5z"/>
<path d="M1120 1350 c0 -11 4 -20 9 -20 11 0 22 26 14 34 -12 12 -23 5 -23
-14z"/>
<path d="M1197 1269 c-10 -6 -34 -9 -52 -7 -19 2 -31 0 -29 -4 9 -13 69 -9 90
7 22 17 17 19 -9 4z"/>
<path d="M935 1231 c-9 -8 -5 -41 5 -41 5 0 14 8 19 18 6 9 11 11 11 5 0 -7 7
-13 15 -13 16 0 19 9 7 26 -7 10 -49 14 -57 5z"/>
<path d="M998 1141 c-22 -13 -33 -14 -58 -4 -16 6 -30 8 -30 3 0 -23 91 -27
110 -5 18 22 9 24 -22 6z"/>
<path d="M760 935 l-55 -13 58 -1 c44 -1 57 2 57 14 0 8 -1 14 -2 14 -2 -1
-28 -7 -58 -14z"/>
<path d="M1273 943 c16 -4 17 -16 15 -106 l-3 -102 -25 4 c-14 1 -28 8 -32 15
-5 7 -8 5 -8 -5 0 -9 10 -19 21 -22 19 -5 21 -11 16 -41 -5 -32 -3 -36 16 -35
12 0 16 3 10 6 -18 7 -16 60 2 67 9 3 15 19 16 43 0 21 3 32 6 26 2 -7 14 -13
26 -12 12 0 16 3 10 6 -7 2 -13 15 -13 28 0 13 -5 25 -11 27 -7 2 -12 27 -13
56 -1 49 -3 52 -26 51 -17 -1 -20 -3 -7 -6z"/>
<path d="M1216 931 c-4 -5 3 -7 14 -4 23 6 26 13 6 13 -8 0 -17 -4 -20 -9z"/>
<path d="M838 923 c6 -2 18 -2 25 0 6 3 1 5 -13 5 -14 0 -19 -2 -12 -5z"/>
<path d="M1131 904 c-1 -35 22 -47 36 -18 11 24 1 34 -13 12 -5 -8 -10 -6 -15
8 -7 18 -8 18 -8 -2z"/>
<path d="M1340 900 c-12 -8 -10 -10 8 -10 13 0 20 4 17 10 -7 12 -6 12 -25 0z"/>
<path d="M1151 834 c0 -11 3 -14 6 -6 3 7 2 16 -1 19 -3 4 -6 -2 -5 -13z"/>
<path d="M1203 788 c-7 -31 -14 -43 -26 -42 -19 2 -23 -11 -6 -22 7 -4 9 -21
6 -40 -4 -23 -2 -34 7 -34 8 0 11 11 8 33 -2 21 4 47 17 70 22 39 28 77 12 77
-6 0 -14 -19 -18 -42z"/>
</g>
</svg>
