<?xml version="1.0" standalone="no"?>
<!DOCTYPE svg PUBLIC "-//W3C//DTD SVG 20010904//EN"
 "http://www.w3.org/TR/2001/REC-SVG-20010904/DTD/svg10.dtd">
<svg version="1.0" xmlns="http://www.w3.org/2000/svg"
 width="314.000000pt" height="283.000000pt" viewBox="0 0 314.000000 283.000000"
 preserveAspectRatio="xMidYMid meet">

<g transform="translate(0.000000,283.000000) scale(0.100000,-0.100000)"
fill="#000000" stroke="none">
<path d="M1698 2324 c-3 -3 -129 -64 -279 -135 -151 -71 -395 -187 -542 -257
l-268 -127 115 -3 116 -3 0 -191 0 -191 -34 6 c-18 3 -38 1 -44 -5 -6 -6 -21
-16 -34 -22 -19 -10 -26 -28 -45 -116 -29 -139 -29 -154 3 -179 21 -16 42 -21
93 -22 63 -1 64 -2 24 -9 -54 -11 -100 -35 -113 -59 -6 -12 -10 -108 -10 -239
0 -214 0 -219 23 -239 42 -39 70 -47 162 -47 77 -1 96 3 128 23 43 26 51 49
52 141 l0 65 -65 0 -65 0 -3 -70 c-3 -75 -13 -95 -46 -95 -43 0 -46 13 -46
226 0 220 2 229 57 222 28 -3 28 -4 31 -76 l3 -73 67 3 67 3 -1 68 c-1 82 -20
114 -85 139 -32 12 -37 17 -21 17 13 1 20 5 17 11 -3 5 -15 55 -26 110 -56
291 23 544 220 708 101 84 207 136 361 179 92 25 358 25 450 0 163 -44 278
-107 375 -204 173 -174 230 -418 169 -725 l-17 -87 -39 -6 c-22 -4 -51 -17
-66 -30 -22 -19 -26 -32 -30 -86 -2 -35 1 -76 7 -91 6 -15 48 -55 98 -93 97
-73 112 -93 113 -147 0 -39 -20 -68 -49 -68 -30 0 -41 22 -41 82 l0 58 -70 0
-70 0 0 -50 c0 -117 46 -154 190 -154 83 0 115 9 153 42 14 12 17 32 17 98 0
99 -10 114 -132 201 l-79 57 3 56 3 55 35 0 35 0 5 -55 5 -55 65 0 65 0 3 44
c6 77 -21 110 -118 144 -9 3 -10 6 -2 6 9 1 12 80 12 361 l0 360 118 1 117 0
-120 59 c-66 33 -201 97 -300 144 -99 47 -247 117 -330 157 -356 170 -373 178
-387 163z"/>
<path d="M1115 1762 c-63 -13 -87 -94 -41 -135 l25 -22 -42 -20 c-23 -11 -47
-31 -54 -45 -9 -17 -13 -83 -13 -211 0 -173 1 -187 20 -204 11 -10 22 -16 23
-14 2 2 33 54 69 114 117 197 140 255 99 255 -10 0 -25 -10 -33 -22 -15 -22
-38 -18 -38 8 0 44 81 71 114 38 39 -38 5 -132 -115 -321 -33 -51 -59 -95 -59
-98 0 -3 28 -5 61 -5 67 0 123 25 134 59 6 21 4 21 127 -40 23 -12 58 -19 94
-19 50 0 55 2 48 18 -5 9 -10 73 -12 141 -3 105 -1 126 14 142 9 10 23 19 31
19 17 0 17 8 -2 26 -32 33 -1 84 51 84 43 0 73 -68 39 -87 -13 -7 -10 -13 15
-31 l30 -23 0 -129 c0 -83 -4 -131 -11 -136 -20 -12 13 -24 69 -24 56 0 95 15
125 48 17 19 17 21 -5 63 -30 58 -30 132 0 183 16 28 22 53 22 101 0 58 -2 65
-31 89 -17 14 -39 26 -50 26 -25 0 -24 6 6 42 32 37 32 72 0 103 -34 34 -93
34 -125 0 -32 -34 -30 -83 5 -111 29 -23 27 -27 -17 -38 -15 -3 -37 -20 -50
-36 l-21 -30 -19 31 c-18 30 -18 31 4 49 18 15 19 19 7 20 -25 0 -49 33 -49
67 0 68 -97 101 -139 47 -12 -15 -21 -36 -21 -48 0 -27 -27 -66 -46 -66 -23 0
-16 -16 12 -28 l25 -12 -20 -26 c-14 -17 -21 -41 -21 -68 0 -35 -6 -48 -35
-76 l-35 -34 0 75 c0 86 -14 113 -67 135 l-34 15 25 30 c30 36 33 68 9 98 -20
23 -67 39 -98 33z"/>
<path d="M1175 1055 c-75 -27 -75 -26 -75 -306 l0 -249 70 0 69 0 3 122 c3
109 5 123 21 126 10 2 29 -4 42 -12 24 -16 25 -21 25 -126 l0 -110 70 0 70 0
0 114 c0 126 -6 142 -63 153 l-30 6 34 16 c48 23 60 53 57 138 -4 79 -19 105
-75 129 -42 18 -167 17 -218 -1z m153 -138 c3 -91 -5 -107 -54 -107 l-34 0 0
79 c0 104 4 113 49 109 l36 -3 3 -78z"/>
<path d="M1984 1051 c-74 -34 -74 -35 -74 -308 l0 -243 70 0 69 0 3 108 3 107
43 3 42 3 0 -110 0 -111 75 0 75 0 0 246 0 246 -28 28 c-16 15 -46 33 -68 39
-62 17 -163 13 -210 -8z m154 -159 l3 -103 -43 3 -43 3 -3 82 c-3 101 7 125
51 121 l32 -3 3 -103z"/>
<path d="M1537 1054 c-4 -4 -7 -130 -7 -281 l0 -273 166 0 165 0 -3 38 -3 37
-87 3 -88 3 0 94 0 95 85 0 85 0 0 35 0 35 -85 0 -85 0 0 70 0 70 91 0 90 0
-3 38 -3 37 -156 3 c-85 1 -158 -1 -162 -4z"/>
<path d="M2803 475 c-9 -25 2 -27 22 -5 17 18 17 20 1 20 -9 0 -19 -7 -23 -15z"/>
<path d="M468 423 c17 -7 17 -159 0 -166 -7 -3 7 -6 32 -6 34 -1 41 2 32 11
-14 14 -16 78 -3 78 5 0 17 -7 25 -16 15 -14 16 -12 16 23 -1 31 -3 35 -11 21
-18 -31 -39 -22 -39 17 0 30 3 35 24 35 14 0 32 -7 40 -16 15 -14 16 -14 16 5
0 19 -6 21 -72 20 -40 0 -67 -3 -60 -6z"/>
<path d="M628 423 c8 -3 12 -30 12 -83 0 -53 -4 -80 -12 -83 -7 -3 22 -6 65
-6 76 -1 77 -1 77 24 l0 25 -21 -21 c-11 -11 -30 -19 -42 -17 -20 3 -22 10
-25 71 -2 42 2 74 9 83 10 12 4 14 -32 13 -24 0 -38 -3 -31 -6z"/>
<path d="M825 405 c-28 -27 -34 -88 -12 -116 36 -47 97 -51 138 -10 60 61 24
151 -61 151 -30 0 -47 -6 -65 -25z m103 -18 c16 -32 8 -100 -13 -117 -21 -17
-48 -8 -63 20 -15 28 -10 93 9 116 18 22 52 13 67 -19z"/>
<path d="M1008 423 c8 -3 12 -30 12 -83 0 -53 -4 -80 -12 -83 -7 -3 7 -5 32
-5 25 0 39 2 33 5 -14 5 -18 73 -4 73 4 0 20 -18 35 -40 19 -29 33 -40 52 -40
l26 0 -32 40 -31 39 21 21 c25 25 25 35 0 60 -16 16 -33 20 -82 19 -35 0 -57
-3 -50 -6z m97 -43 c0 -29 -4 -36 -22 -38 -21 -3 -23 1 -23 38 0 37 2 41 23
38 18 -2 22 -9 22 -38z"/>
<path d="M1271 364 c3 -38 2 -79 -2 -91 -8 -22 -6 -23 37 -23 50 0 98 20 108
45 12 32 6 83 -13 106 -14 18 -31 23 -77 27 l-60 4 7 -68z m97 26 c23 -45 1
-130 -34 -130 -11 0 -14 19 -14 81 0 71 2 80 17 77 10 -2 23 -14 31 -28z"/>
<path d="M1475 405 c-17 -16 -25 -35 -25 -59 0 -48 8 -65 41 -81 43 -23 77
-18 110 14 60 61 24 151 -61 151 -30 0 -47 -6 -65 -25z m95 0 c15 -19 15 -112
-1 -131 -33 -40 -83 13 -75 79 7 61 46 88 76 52z"/>
<path d="M1749 401 c-45 -45 -40 -110 12 -136 39 -21 73 -19 100 6 l24 20 -27
-17 c-40 -24 -74 -12 -88 31 -27 82 36 149 90 95 19 -19 20 -19 20 -1 0 20
-25 31 -73 31 -18 0 -39 -11 -58 -29z"/>
<path d="M1949 341 l-45 -91 25 0 c19 0 22 3 14 11 -19 19 -3 39 32 39 32 0
52 -21 39 -41 -3 -5 11 -9 32 -9 28 0 34 3 26 13 -6 6 -26 47 -45 90 l-34 79
-44 -91z m51 -23 c0 -4 -11 -8 -25 -8 -28 0 -30 3 -14 32 11 21 12 21 25 3 8
-10 14 -22 14 -27z"/>
<path d="M2111 413 c8 -10 20 -24 27 -31 6 -7 12 -17 12 -21 0 -5 10 -30 22
-57 l21 -49 34 70 33 70 -3 -73 -2 -72 33 0 c20 0 31 4 27 10 -13 21 -17 110
-6 140 10 31 10 31 -20 28 -27 -3 -34 -10 -54 -58 l-24 -55 -25 58 c-23 52
-29 57 -57 57 -29 0 -30 -2 -18 -17z"/>
<path d="M2545 340 l0 -90 35 0 c26 0 31 3 22 12 -14 14 -16 68 -2 68 5 0 22
-18 36 -40 26 -39 28 -40 83 -40 36 0 51 3 42 9 -23 15 -5 41 28 41 33 0 62
-34 38 -43 -6 -3 8 -6 32 -6 41 -1 43 0 29 17 -8 9 -28 47 -44 85 -15 37 -31
67 -35 67 -3 0 -22 -36 -42 -80 -20 -44 -42 -80 -50 -80 -8 0 -26 17 -40 37
-26 36 -26 37 -7 50 49 35 6 83 -75 83 l-50 0 0 -90z m95 65 c10 -12 10 -21 1
-41 -14 -31 -45 -29 -49 4 -7 48 21 69 48 37z m169 -82 c1 -7 -8 -13 -19 -13
-23 0 -25 12 -8 43 11 21 11 21 19 2 4 -11 8 -26 8 -32z"/>
<path d="M2385 335 l-40 -85 25 0 c18 0 21 3 11 9 -25 16 -4 41 33 41 36 0 58
-26 34 -42 -8 -5 3 -8 27 -8 l40 0 -40 85 c-22 47 -42 85 -45 85 -3 0 -23 -38
-45 -85z m45 -7 c0 -11 -8 -18 -20 -18 -23 0 -24 1 -8 35 12 27 28 18 28 -17z"/>
<path d="M2110 265 c-10 -13 -9 -15 8 -15 15 0 20 5 16 15 -4 8 -7 15 -9 15
-1 0 -8 -7 -15 -15z"/>
</g>
</svg>
