<?xml version="1.0" standalone="no"?>
<!DOCTYPE svg PUBLIC "-//W3C//DTD SVG 20010904//EN"
 "http://www.w3.org/TR/2001/REC-SVG-20010904/DTD/svg10.dtd">
<svg version="1.0" xmlns="http://www.w3.org/2000/svg"
 width="245.000000pt" height="260.000000pt" viewBox="0 0 245.000000 260.000000"
 preserveAspectRatio="xMidYMid meet">

<g transform="translate(0.000000,260.000000) scale(0.100000,-0.100000)"
fill="#000000" stroke="none">
<path d="M1091 2344 c-105 -40 -209 -114 -194 -137 3 -6 1 -7 -5 -3 -19 11
-72 -67 -94 -138 -17 -56 -20 -85 -15 -165 5 -94 22 -166 37 -156 4 2 5 -6 3
-18 -6 -29 46 -85 59 -65 4 8 8 8 8 2 0 -19 -13 -24 -29 -11 -8 6 -2 -5 13
-25 16 -21 33 -35 40 -31 6 3 8 2 3 -2 -10 -12 42 -65 64 -65 9 0 19 -6 22
-14 5 -12 77 -41 83 -33 1 1 4 32 7 70 4 61 3 69 -16 82 -26 18 -41 19 -31 3
4 -7 3 -8 -5 -4 -6 4 -9 10 -7 14 2 4 -18 32 -45 62 -59 66 -72 107 -66 209 6
110 52 194 138 252 21 15 35 30 31 33 -3 4 1 4 11 0 10 -3 17 -1 17 6 0 6 3 9
8 6 4 -2 34 2 67 9 44 11 70 12 98 4 20 -5 41 -7 46 -4 5 3 11 2 13 -2 4 -11
80 -48 95 -46 7 0 11 -4 10 -11 -1 -6 5 -10 13 -8 8 2 12 1 8 -3 -4 -4 6 -21
23 -39 54 -58 70 -107 72 -227 1 -60 0 -105 -1 -99 -2 6 -22 -17 -44 -50 -22
-33 -45 -60 -49 -60 -5 0 -18 -8 -29 -17 -17 -15 -19 -25 -14 -59 7 -49 -3
-60 -69 -67 -35 -3 -46 -2 -38 6 6 6 11 35 11 64 0 30 6 68 13 86 8 18 12 39
9 47 -3 8 -1 12 3 8 8 -8 72 72 84 105 10 26 3 87 -10 87 -5 0 -8 3 -7 8 2 4
-3 32 -11 63 -16 66 -36 84 -74 64 -14 -7 -41 -16 -59 -21 -18 -4 -27 -9 -20
-11 19 -7 14 -30 -10 -48 -23 -16 -23 -16 12 -12 55 8 101 28 94 40 -5 9 -4 9
5 1 9 -8 10 -18 3 -30 -9 -18 -4 -76 14 -149 6 -26 5 -28 -8 -17 -9 7 -18 26
-22 42 -5 28 -7 29 -31 18 -13 -6 -27 -19 -30 -30 -4 -10 -13 -18 -21 -18 -12
0 -13 -4 -3 -22 9 -19 9 -21 -2 -10 -11 10 -17 7 -36 -15 -20 -26 -22 -26 -23
-7 0 11 5 25 12 32 21 21 -1 13 -27 -10 -13 -11 -22 -24 -20 -28 2 -4 -2 -7
-10 -7 -17 0 -20 23 -5 32 6 4 8 10 5 15 -3 5 0 12 6 16 8 5 10 2 4 -7 -4 -8
6 0 23 16 34 35 34 45 -1 22 -14 -9 -35 -13 -48 -11 -19 5 -21 4 -9 -5 11 -8
7 -9 -20 -5 -19 4 -42 13 -51 21 -15 12 -15 9 -6 -36 5 -28 13 -48 17 -46 4 3
11 -2 14 -11 4 -10 2 -13 -7 -7 -6 4 -5 -4 5 -17 9 -14 23 -24 32 -24 9 1 14
-2 11 -6 -3 -5 0 -10 5 -12 6 -2 12 -35 14 -73 3 -39 6 -89 8 -112 l3 -43 -52
-21 c-96 -39 -145 -117 -136 -217 6 -67 12 -72 90 -72 l42 0 35 -74 c19 -40
38 -85 42 -100 7 -29 23 -40 71 -49 23 -5 33 -2 37 9 4 9 11 12 18 8 17 -11
48 -13 48 -3 0 19 36 18 63 -1 28 -21 29 -21 43 -3 11 13 17 15 21 5 4 -9 8
-10 18 -2 10 8 17 6 29 -11 l15 -23 9 23 c4 12 12 22 17 22 6 -1 10 7 10 17 0
15 -8 17 -62 13 l-63 -3 -1 28 c-2 32 -5 54 -9 69 -1 6 -2 14 -1 19 1 4 -6 14
-15 20 -14 11 -13 15 10 43 18 22 26 42 26 71 0 22 7 56 15 76 l16 37 29 -21
c38 -27 61 -61 93 -140 31 -75 46 -139 47 -192 0 -26 5 -38 14 -38 8 0 16 6
19 13 3 9 10 7 24 -6 20 -17 21 -17 26 3 4 17 11 20 26 15 17 -5 21 -2 21 15
0 23 28 39 39 22 9 -15 61 -34 61 -22 0 6 -9 10 -20 10 -24 0 -27 18 -4 27 11
4 22 -1 31 -13 13 -17 14 -4 8 101 -4 66 -13 147 -21 179 -28 113 -97 169
-215 171 -80 2 -175 41 -143 58 31 15 104 98 122 136 9 20 18 40 20 45 3 5 -2
6 -9 2 -8 -4 -7 -1 2 6 24 20 49 112 49 181 0 65 -18 139 -31 131 -5 -3 -7 1
-4 8 9 23 -60 142 -76 132 -5 -3 -6 1 -3 9 5 14 -43 54 -59 49 -5 -1 -6 2 -3
7 9 13 -81 74 -96 65 -6 -4 -8 -3 -4 4 11 18 -83 41 -189 46 -89 5 -107 2
-164 -20z m4 -24 c3 -6 -1 -7 -9 -4 -18 7 -21 14 -7 14 6 0 13 -4 16 -10z
m-185 -134 c0 -2 -7 -7 -16 -10 -8 -3 -12 -2 -9 4 6 10 25 14 25 6z m608 -71
c-3 -3 -9 2 -12 12 -6 14 -5 15 5 6 7 -7 10 -15 7 -18z m-528 11 c0 -2 -8 -10
-17 -17 -16 -13 -17 -12 -4 4 13 16 21 21 21 13z m400 -150 c0 -3 -4 -8 -10
-11 -5 -3 -10 -1 -10 4 0 6 5 11 10 11 6 0 10 -2 10 -4z m317 -128 c-3 -8 -6
-5 -6 6 -1 11 2 17 5 13 3 -3 4 -12 1 -19z m-324 -73 c-3 -9 -8 -14 -10 -11
-3 3 -2 9 2 15 9 16 15 13 8 -4z m-108 -256 c-10 -15 -25 -10 -19 6 4 8 10 12
15 9 5 -3 7 -10 4 -15z m232 15 c-3 -3 -12 -4 -19 -1 -8 3 -5 6 6 6 11 1 17
-2 13 -5z"/>
<path d="M1285 2120 c3 -4 0 -10 -7 -12 -13 -5 -2 -28 13 -28 6 0 8 4 5 8 -3
5 5 8 17 8 33 -1 28 28 -6 31 -15 1 -25 -2 -22 -7z"/>
<path d="M1203 2108 c-6 -10 -12 -68 -7 -68 1 0 15 5 33 11 22 8 31 17 28 28
-2 9 -9 15 -16 13 -9 -2 -11 3 -8 13 8 18 -18 21 -30 3z"/>
<path d="M1117 2046 c-10 -25 -9 -28 5 -20 8 5 9 -4 5 -34 -5 -31 -3 -45 9
-57 12 -12 19 -13 24 -5 5 8 9 7 13 -3 4 -11 0 -15 -14 -12 -16 3 -18 1 -9
-16 13 -23 26 -25 33 -5 9 23 -2 121 -13 124 -6 2 -8 7 -6 11 3 4 0 13 -5 21
-7 13 -10 13 -18 1 -7 -11 -9 -11 -13 0 -3 9 -6 8 -11 -5z"/>
<path d="M1056 1953 c6 -50 18 -73 40 -73 18 0 28 19 16 33 -5 7 -15 29 -21
50 -19 56 -43 49 -35 -10z m49 -43 c3 -5 1 -10 -4 -10 -6 0 -11 5 -11 10 0 6
2 10 4 10 3 0 8 -4 11 -10z"/>
<path d="M1308 1969 c-19 -11 -24 -44 -9 -53 5 -3 19 2 30 12 19 14 20 20 9
34 -10 13 -17 15 -30 7z"/>
<path d="M1210 1954 c0 -8 5 -25 11 -36 9 -17 13 -18 20 -7 7 12 9 11 10 -1 0
-10 3 -8 9 5 16 36 12 48 -15 43 -13 -3 -22 -1 -19 3 3 5 0 9 -5 9 -6 0 -11
-7 -11 -16z"/>
<path d="M735 1442 c-58 -6 -104 -23 -135 -48 -16 -14 -30 -30 -30 -36 0 -6
16 -28 36 -50 37 -42 84 -130 84 -160 0 -53 62 -178 88 -178 6 0 12 -5 12 -11
0 -8 4 -8 15 1 8 6 18 9 24 6 5 -3 11 -1 13 6 3 7 12 9 22 5 10 -4 14 -12 10
-19 -5 -8 -1 -8 12 2 10 8 20 15 22 16 2 1 -1 12 -7 23 -10 17 -16 19 -37 11
-40 -16 -62 -12 -70 12 -3 12 -15 30 -25 41 -10 11 -16 24 -13 29 3 5 -2 15
-12 23 -18 12 -18 14 1 48 14 27 16 39 7 49 -6 8 -12 46 -13 86 -2 70 -1 74
30 106 28 29 30 34 14 37 -10 3 -31 3 -48 1z"/>
<path d="M564 1254 c-18 -14 -18 -15 4 -4 12 6 22 13 22 15 0 8 -5 6 -26 -11z"/>
<path d="M570 1216 c0 -9 7 -12 21 -9 16 4 17 8 7 14 -19 13 -28 11 -28 -5z"/>
<path d="M1988 1022 c-24 -27 -28 -50 -12 -63 8 -7 13 -18 10 -26 -3 -7 -1
-13 3 -13 11 0 31 55 31 86 0 30 -14 38 -32 16z"/>
<path d="M1810 992 c0 -4 9 -8 20 -8 11 0 20 4 20 8 0 4 -9 8 -20 8 -11 0 -20
-4 -20 -8z"/>
<path d="M511 944 l-23 -17 32 -13 c42 -18 43 -18 35 7 -5 14 -2 25 6 30 11 7
9 9 -6 9 -11 0 -31 -7 -44 -16z"/>
<path d="M1675 950 c-16 -7 -17 -9 -3 -9 9 -1 20 4 23 9 7 11 7 11 -20 0z"/>
<path d="M1798 936 c12 -15 19 -33 15 -39 -3 -6 -1 -7 5 -3 8 5 9 13 3 24 -4
9 -7 23 -5 30 1 7 0 8 -3 2 -3 -7 -10 -7 -21 2 -9 7 -7 0 6 -16z"/>
<path d="M1052 882 c4 -24 1 -32 -8 -28 -8 3 -16 1 -19 -4 -4 -6 23 -9 67 -8
40 1 57 3 38 5 -25 3 -41 13 -58 36 l-24 32 4 -33z"/>
<path d="M1563 864 c-8 -17 -6 -24 9 -33 24 -15 41 -5 33 20 -4 13 -2 19 9 19
9 0 16 4 16 9 0 18 -57 6 -67 -15z"/>
<path d="M709 860 c-15 -16 -15 -18 2 -29 23 -14 49 -14 49 -1 0 6 17 11 38
12 l37 1 -34 4 c-19 3 -43 10 -55 17 -18 11 -23 11 -37 -4z"/>
<path d="M1380 870 c0 -7 -7 -21 -16 -31 -15 -17 -15 -19 8 -29 21 -10 24 -18
24 -53 -1 -40 0 -42 29 -42 28 0 30 2 30 40 0 33 -4 40 -25 45 -32 8 -40 40
-10 40 12 0 18 4 15 10 -4 6 -11 7 -17 4 -6 -4 -17 1 -25 11 -9 13 -13 14 -13
5z m60 -121 c0 -20 -4 -29 -12 -27 -15 5 -22 33 -14 54 9 24 26 6 26 -27z"/>
<path d="M907 854 c-4 -4 -7 -18 -7 -31 0 -14 -6 -23 -15 -23 -11 0 -15 -12
-15 -45 0 -25 5 -45 10 -45 6 0 10 8 10 18 1 16 1 16 14 0 20 -27 24 -22 22
30 -2 26 1 52 6 58 9 12 -14 49 -25 38z m7 -85 c-8 -14 -24 -10 -24 6 0 9 6
12 15 9 8 -4 12 -10 9 -15z"/>
<path d="M1213 843 c9 -2 23 -2 30 0 6 3 -1 5 -18 5 -16 0 -22 -2 -12 -5z"/>
<path d="M1737 803 c-4 -3 -7 -26 -7 -50 0 -41 1 -43 29 -43 45 0 58 57 19 84
-25 18 -32 19 -41 9z m41 -51 c-4 -34 -26 -40 -34 -8 -7 31 2 47 22 39 9 -3
14 -15 12 -31z"/>
<path d="M622 788 c-16 -16 -15 -53 3 -68 17 -14 47 -10 53 8 3 11 0 12 -16 3
-23 -12 -32 -6 -32 24 0 29 10 37 27 23 15 -12 28 -5 18 11 -8 15 -38 14 -53
-1z"/>
<path d="M702 788 c-28 -28 -8 -82 29 -76 21 3 24 8 24 43 0 32 -4 41 -20 43
-11 1 -26 -3 -33 -10z m41 -49 c-3 -11 -11 -18 -17 -16 -14 5 -20 33 -11 55 6
16 7 16 20 -1 7 -10 11 -27 8 -38z"/>
<path d="M784 787 c-3 -9 -4 -28 -2 -44 2 -22 9 -29 30 -31 23 -3 29 2 34 24
4 15 2 34 -3 43 -13 21 -52 26 -59 8z m44 -38 c-4 -27 -23 -36 -32 -14 -8 22
13 60 26 47 5 -5 8 -20 6 -33z"/>
<path d="M960 756 c0 -42 2 -46 25 -46 18 0 29 8 37 26 15 33 1 58 -36 62 -25
3 -26 1 -26 -42z m48 -5 c-3 -30 -31 -36 -36 -8 -6 28 5 47 23 41 10 -4 15
-16 13 -33z"/>
<path d="M1048 789 c-2 -6 -2 -26 0 -45 4 -31 7 -34 36 -33 27 1 28 2 8 7 -28
8 -30 24 -6 32 16 6 15 7 -5 13 -14 3 -20 10 -16 17 4 6 13 9 21 6 7 -3 16 -1
19 4 4 6 -7 10 -24 10 -16 0 -31 -5 -33 -11z"/>
<path d="M1127 794 c-11 -11 -8 -84 3 -84 6 0 10 9 10 20 0 11 4 20 9 20 5 0
13 -9 16 -20 3 -11 13 -20 21 -20 16 0 20 75 4 85 -6 4 -10 -6 -10 -22 l0 -28
-23 28 c-12 16 -26 25 -30 21z"/>
<path d="M1227 757 l-14 -42 39 0 c30 0 37 3 32 15 -3 8 -11 27 -16 43 -14 38
-24 34 -41 -16z m33 -7 c0 -5 -4 -10 -10 -10 -5 0 -10 5 -10 10 0 6 5 10 10
10 6 0 10 -4 10 -10z"/>
<path d="M1310 756 c0 -42 2 -46 25 -46 50 0 53 82 2 88 -26 3 -27 1 -27 -42z
m48 -5 c-3 -30 -31 -36 -36 -8 -6 28 5 47 23 41 10 -4 15 -16 13 -33z"/>
<path d="M1480 755 c0 -25 5 -45 10 -45 6 0 10 7 10 15 0 8 4 15 9 15 5 0 11
-7 15 -15 3 -8 10 -15 16 -15 7 0 8 6 1 18 -7 13 -7 22 0 29 17 17 -1 43 -32
43 -28 0 -29 -2 -29 -45z m50 14 c0 -5 -7 -9 -15 -9 -8 0 -15 7 -15 15 0 9 6
12 15 9 8 -4 15 -10 15 -15z"/>
<path d="M1570 755 c0 -25 5 -45 10 -45 6 0 10 20 10 45 0 25 -4 45 -10 45 -5
0 -10 -20 -10 -45z"/>
<path d="M1622 773 c-5 -16 -13 -35 -16 -43 -5 -12 2 -15 32 -15 l39 0 -14 42
c-17 50 -27 54 -41 16z m28 -23 c0 -5 -4 -10 -10 -10 -5 0 -10 5 -10 10 0 6 5
10 10 10 6 0 10 -4 10 -10z"/>
<path d="M1824 765 c-20 -48 -19 -50 21 -51 19 0 35 3 35 7 0 12 -30 79 -36
79 -3 0 -12 -16 -20 -35z m26 -10 c0 -8 -4 -15 -10 -15 -5 0 -7 7 -4 15 4 8 8
15 10 15 2 0 4 -7 4 -15z"/>
<path d="M620 555 c0 -107 1 -115 20 -115 16 0 19 8 22 63 l3 62 23 -37 c13
-21 30 -38 37 -38 7 0 21 17 31 38 l19 37 5 -60 c4 -52 8 -60 25 -60 19 0 20
8 23 113 l3 112 -26 0 c-21 0 -30 -10 -52 -54 -15 -30 -30 -53 -35 -50 -4 3
-18 27 -29 55 -17 39 -26 49 -45 49 -24 0 -24 -1 -24 -115z"/>
<path d="M880 582 c0 -62 4 -94 15 -109 32 -45 121 -37 144 13 6 14 11 61 11
104 0 79 0 80 -25 80 -25 0 -25 -1 -25 -83 0 -85 -8 -107 -42 -107 -27 0 -38
32 -38 114 0 69 -2 76 -20 76 -18 0 -20 -7 -20 -88z"/>
<path d="M1100 555 l0 -116 72 3 c59 2 73 6 76 20 3 14 -6 17 -50 20 l-53 3
-3 93 c-2 84 -4 92 -22 92 -19 0 -20 -7 -20 -115z"/>
<path d="M1282 558 c3 -105 4 -113 23 -113 17 0 20 8 23 48 l3 47 40 0 39 0 0
-50 c0 -43 3 -50 20 -50 19 0 20 7 20 115 0 108 -1 115 -20 115 -17 0 -20 -7
-20 -45 l0 -45 -40 0 -40 0 0 45 c0 41 -2 45 -25 45 l-26 0 3 -112z"/>
<path d="M1510 555 l0 -116 72 3 c59 2 73 6 76 20 3 14 -6 17 -50 20 -50 3
-53 5 -56 31 -3 26 -2 27 42 27 39 0 46 3 46 20 0 17 -7 20 -45 20 -41 0 -45
2 -45 25 0 24 3 25 55 25 48 0 55 2 55 20 0 18 -7 20 -75 20 l-75 0 0 -115z"/>
<path d="M1702 558 c3 -105 4 -113 23 -113 17 0 20 8 23 48 4 63 24 62 57 -3
18 -35 31 -50 45 -50 25 0 25 11 0 60 l-20 40 20 20 c26 26 26 64 0 90 -16 16
-33 20 -85 20 l-66 0 3 -112z m116 48 c5 -22 -13 -36 -45 -36 -19 0 -23 5 -23
31 0 28 2 30 32 27 23 -2 34 -9 36 -22z"/>
<path d="M620 350 c0 -59 0 -60 28 -60 39 0 52 17 52 66 0 44 -10 54 -56 54
-23 0 -24 -3 -24 -60z m60 0 c0 -33 -3 -40 -20 -40 -17 0 -20 7 -20 40 0 33 3
40 20 40 17 0 20 -7 20 -40z"/>
<path d="M730 350 l0 -60 40 0 c22 0 40 5 40 10 0 6 -13 10 -30 10 -20 0 -30
5 -30 15 0 9 9 15 25 15 14 0 25 5 25 10 0 6 -11 10 -25 10 -16 0 -25 6 -25
15 0 10 10 15 30 15 17 0 30 5 30 10 0 6 -18 10 -40 10 l-40 0 0 -60z"/>
<path d="M882 398 c-7 -7 -12 -28 -12 -48 0 -55 40 -81 70 -45 16 20 5 32 -14
16 -21 -18 -36 -5 -36 29 0 34 15 47 36 29 19 -16 30 -4 14 16 -15 18 -41 20
-58 3z"/>
<path d="M980 354 c-11 -31 -19 -59 -16 -61 2 -2 13 2 25 9 17 11 25 11 42 0
12 -7 23 -11 25 -9 7 6 -38 117 -47 117 -4 0 -17 -25 -29 -56z m40 -9 c0 -8
-4 -15 -10 -15 -5 0 -10 7 -10 15 0 8 5 15 10 15 6 0 10 -7 10 -15z"/>
<path d="M1080 350 c0 -33 4 -60 10 -60 6 0 10 15 10 33 1 32 1 32 14 8 l13
-24 17 24 16 23 0 -32 c0 -17 5 -32 10 -32 6 0 10 27 10 60 0 67 -13 78 -34
28 l-14 -32 -16 32 c-25 48 -36 39 -36 -28z"/>
<path d="M1223 350 c-17 -49 -19 -60 -7 -60 8 0 14 5 14 10 0 15 48 12 53 -2
2 -7 8 -10 12 -6 9 9 -26 110 -40 115 -5 2 -20 -24 -32 -57z m36 -19 c-15 -5
-22 6 -14 19 6 9 10 9 16 -1 5 -8 4 -15 -2 -18z"/>
<path d="M1320 350 c0 -33 4 -60 10 -60 6 0 10 9 10 19 0 31 19 35 32 7 6 -14
17 -26 25 -26 16 0 17 12 1 28 -9 9 -9 17 2 36 18 34 -1 56 -46 56 l-34 0 0
-60z m60 25 c0 -8 -9 -15 -20 -15 -20 0 -26 11 -13 23 12 13 33 7 33 -8z"/>
<path d="M1441 354 c-12 -31 -20 -59 -17 -61 2 -2 13 2 25 9 17 11 25 11 42 0
12 -7 23 -12 25 -9 7 6 -32 111 -43 114 -5 2 -20 -22 -32 -53z m39 -9 c0 -8
-4 -15 -10 -15 -5 0 -10 7 -10 15 0 8 5 15 10 15 6 0 10 -7 10 -15z"/>
<path d="M1540 391 c-23 -44 -4 -101 33 -101 42 0 66 51 31 64 -21 8 -33 -2
-15 -13 16 -10 6 -31 -14 -31 -17 0 -28 34 -20 60 7 22 25 26 43 8 17 -17 28
-2 12 17 -18 21 -57 19 -70 -4z"/>
<path d="M1640 350 c0 -47 3 -60 15 -60 12 0 15 13 15 60 0 47 -3 60 -15 60
-12 0 -15 -13 -15 -60z"/>
<path d="M1699 405 c0 -3 -1 -29 -1 -57 l-1 -53 37 -3 c20 -2 37 0 37 5 7 37
5 90 -3 101 -10 11 -67 18 -69 7z m54 -30 c1 -5 -6 -11 -15 -13 -11 -2 -18 3
-18 13 0 17 30 18 33 0z m0 -50 c1 -5 -6 -11 -15 -13 -11 -2 -18 3 -18 13 0
17 30 18 33 0z"/>
<path d="M1800 350 l0 -60 40 0 c22 0 40 5 40 10 0 6 -11 10 -25 10 -16 0 -25
6 -25 15 0 8 9 15 20 15 11 0 20 5 20 10 0 6 -9 10 -20 10 -11 0 -20 7 -20 15
0 9 9 15 25 15 14 0 25 5 25 10 0 6 -18 10 -40 10 l-40 0 0 -60z"/>
</g>
</svg>
