<?xml version="1.0" standalone="no"?>
<!DOCTYPE svg PUBLIC "-//W3C//DTD SVG 20010904//EN"
 "http://www.w3.org/TR/2001/REC-SVG-20010904/DTD/svg10.dtd">
<svg version="1.0" xmlns="http://www.w3.org/2000/svg"
 width="143.000000pt" height="126.000000pt" viewBox="0 0 143.000000 126.000000"
 preserveAspectRatio="xMidYMid meet">

<g transform="translate(0.000000,126.000000) scale(0.100000,-0.100000)"
fill="#000000" stroke="none">
<path d="M25 1223 c-37 -55 -33 -87 4 -35 16 22 34 43 40 47 16 9 13 25 -4 25
-8 0 -26 -17 -40 -37z"/>
<path d="M1292 1233 c34 -38 67 -87 105 -158 30 -55 33 -58 33 -29 0 18 -17
58 -41 100 -52 86 -77 114 -103 114 -19 0 -18 -2 6 -27z"/>
<path d="M806 1114 c-8 -21 -8 -26 2 -20 5 3 8 -5 8 -17 -1 -17 4 -21 19 -19
11 2 26 10 34 17 16 15 5 39 -14 31 -7 -2 -16 2 -19 10 -7 19 -22 18 -30 -2z"/>
<path d="M742 1024 c-2 -38 -28 -52 -48 -27 -13 16 -13 16 -5 -7 27 -76 31
-103 26 -166 -2 -38 -7 -117 -10 -176 l-6 -108 31 0 30 0 0 185 c0 102 4 185
8 185 5 0 16 16 25 35 18 37 13 47 -9 18 -12 -16 -13 -14 -14 17 0 25 -3 31
-9 21 -7 -11 -11 -6 -14 20 l-4 34 -1 -31z"/>
<path d="M712 1020 c0 -14 2 -19 5 -12 2 6 2 18 0 25 -3 6 -5 1 -5 -13z"/>
<path d="M488 1018 c-3 -7 -2 -22 2 -32 6 -18 7 -18 13 4 7 26 -7 51 -15 28z"/>
<path d="M512 685 c0 -16 2 -22 5 -12 2 9 2 23 0 30 -3 6 -5 -1 -5 -18z"/>
<path d="M501 614 c0 -11 3 -14 6 -6 3 7 2 16 -1 19 -3 4 -6 -2 -5 -13z"/>
<path d="M1403 378 c-61 -126 -174 -257 -293 -336 -39 -26 -56 -42 -44 -42 27
0 143 80 205 142 55 55 146 186 155 224 12 49 -1 56 -23 12z"/>
</g>
</svg>
